<?xml version="1.0"?>
<svg xmlns="http://www.w3.org/2000/svg" viewBox="0 0 64 64" width="512" height="512"><rect fill="#10bde0" height="42" rx="4" width="58" x="3" y="6"/><path d="m7 10h46v34h-46z" fill="#c9dfff"/><path d="m13 57-4 2 4 2h41v-4z" fill="#10bde0"/><path d="m59 57h-5v4h5a2 2 0 0 0 0-4z" fill="#10bde0"/><path d="m28 14h-10v4h5 5z" fill="#7d7d7d"/><g fill="#ebebeb"><path d="m11 30h8v-4h-4-4z"/><path d="m30 26h-4v4h4 4v-2-2z"/><path d="m26 39h8v-4h-4-4z"/></g><path d="m48 32h-4-4v4h8z" fill="#e39d10"/><path d="m57 5h-50a5.006 5.006 0 0 0 -5 5v34a5.006 5.006 0 0 0 5 5h36v-2h-36a3 3 0 0 1 -3-3v-34a3 3 0 0 1 3-3h50a3 3 0 0 1 3 3v34a3 3 0 0 1 -3 3h-8v2h8a5.006 5.006 0 0 0 5-5v-34a5.006 5.006 0 0 0 -5-5z"/><path d="m54 44v-34a1 1 0 0 0 -1-1h-46a1 1 0 0 0 -1 1v34a1 1 0 0 0 1 1h36v-2h-35v-32h44v32h-3v2h4a1 1 0 0 0 1-1z"/><path d="m56 22h2v10h-2z"/><path d="m59 56h-46a1 1 0 0 0 -.447.1l-4 2a1 1 0 0 0 0 1.79l4 2a1 1 0 0 0 .447.11h46a3 3 0 0 0 0-6zm-47.764 3 2-1h39.764v2h-39.764zm47.764 1h-4v-2h4a1 1 0 0 1 0 2z"/><path d="m49 36v-4a1 1 0 0 0 -1-1h-3v-3a1 1 0 0 0 -1-1h-9v-1a1 1 0 0 0 -1-1h-3v-3a1 1 0 0 0 -1-1h-6v-2h4a1 1 0 0 0 1-1v-4a1 1 0 0 0 -1-1h-10a1 1 0 0 0 -1 1v4a1 1 0 0 0 1 1h4v2h-7a1 1 0 0 0 -1 1v3h-3a1 1 0 0 0 -1 1v4a1 1 0 0 0 1 1h8a1 1 0 0 0 1-1v-4a1 1 0 0 0 -1-1h-3v-2h13v2h-3a1 1 0 0 0 -1 1v4a1 1 0 0 0 1 1h3v3h-3a1 1 0 0 0 -1 1v4a1 1 0 0 0 1 1h8a1 1 0 0 0 1-1v-4a1 1 0 0 0 -1-1h-3v-3h3a1 1 0 0 0 1-1v-1h8v2h-3a1 1 0 0 0 -1 1v4a1 1 0 0 0 1 1h8a1 1 0 0 0 1-1zm-30-21h8v2h-8zm-1 14h-6v-2h6zm15 9h-6v-2h6zm0-9h-6v-2h6zm14 6h-6v-2h6z"/><path d="m3 60h1v-2h-2v1a1 1 0 0 0 1 1z"/><path d="m32.375 51h1.954v2h-1.954z"/><path d="m20.646 51h1.955v2h-1.955z"/><path d="m16.737 51h1.955v2h-1.955z"/><path d="m8.919 51h1.954v2h-1.954z"/><path d="m12.828 51h1.955v2h-1.955z"/><path d="m28.465 51h1.955v2h-1.955z"/><path d="m7.177 53.084-.41-1.958a5.962 5.962 0 0 0 -2.145.915l1.127 1.652a3.95 3.95 0 0 1 1.428-.609z"/><path d="m45 41.981h2v1.955h-2z"/><path d="m43.324 50.256 1.164 1.627a6 6 0 0 0 1.6-1.7l-1.693-1.064a4.011 4.011 0 0 1 -1.071 1.137z"/><path d="m36.284 51h1.954v2h-1.954z"/><path d="m2.107 55.86 1.965.378a3.936 3.936 0 0 1 .585-1.438l-1.668-1.1a5.963 5.963 0 0 0 -.882 2.16z"/><path d="m47 47v-1.109h-2v1.109a4.05 4.05 0 0 1 -.057.676l1.973.331a6.091 6.091 0 0 0 .084-1.007z"/><path d="m41.911 50.9a4.015 4.015 0 0 1 -.911.1h-.807v2h.807a5.989 5.989 0 0 0 1.364-.156z"/><path d="m24.556 51h1.955v2h-1.955z"/><path d="m45 38h2v2h-2z"/></svg>
