<svg viewBox="0 0 480 480" xmlns="http://www.w3.org/2000/svg"><path d="m400 137.351562v-9.351562c0-4.417969-3.582031-8-8-8s-8 3.582031-8 8v9.359375c-.070312 23.59375-11.265625 45.773437-30.207031 59.839844-3.238281 2.441406-4.105469 6.929687-2.015625 10.402343 1.179687 1.945313 3.128906 3.304688 5.367187 3.738282s4.550781-.101563 6.375-1.46875c22.878907-17.101563 36.386719-43.957032 36.480469-72.519532zm0 0" fill="#b5ad1b"/><path d="m155.464844 288.734375c-7.371094 24.246094-2.816406 50.546875 12.269531 70.902344 15.089844 20.355469 38.925781 32.359375 64.265625 32.363281h96v-40h-96c-22.089844 0-40-17.910156-40-40s17.910156-40 40-40h96v-40h-96c-19.335938-.007812-38.011719 7.023438-52.542969 19.777344" fill="#e32210"/><path d="m280 232h48v40h-48zm0 0" fill="#ebebeb"/><path d="m280 352h48v40h-48zm0 0" fill="#ebebeb"/><path d="m408 88c0 22.089844-17.910156 40-40 40s-40-17.910156-40-40 17.910156-40 40-40 40 17.910156 40 40zm0 0" fill="#ebe023"/><path d="m224 184h16c4.417969 0 8 3.582031 8 8s-3.582031 8-8 8h-16c-4.417969 0-8-3.582031-8-8s3.582031-8 8-8zm0 0" fill="#fa0"/><path d="m206.558594 135.605469 13.652344-8.34375c3.769531-2.304688 8.695312-1.113281 11 2.65625 2.304687 3.769531 1.113281 8.691406-2.65625 10.996093l-13.652344 8.34375c-3.769532 2.304688-8.691406 1.117188-10.996094-2.652343s-1.117188-8.695313 2.652344-11zm0 0" fill="#fa0"/><path d="m160.160156 105.546875 7.421875-14.175781c2.050781-3.914063 6.882813-5.425782 10.796875-3.375 3.914063 2.050781 5.425782 6.882812 3.375 10.796875l-7.421875 14.175781c-2.046875 3.914062-6.882812 5.425781-10.796875 3.375-3.914062-2.050781-5.425781-6.882812-3.375-10.796875zm0 0" fill="#fa0"/><path d="m272 0h-16v9.472656c-11.011719 3.878906-17.621094 15.132813-15.644531 26.640625 1.980469 11.507813 11.96875 19.910157 23.644531 19.886719 4.417969 0 8 3.582031 8 8s-3.582031 8-8 8h-24v16h16v8h16v-9.472656c11.011719-3.878906 17.621094-15.132813 15.644531-26.640625-1.980469-11.507813-11.96875-19.910157-23.644531-19.886719-4.417969 0-8-3.582031-8-8s3.582031-8 8-8h24v-16h-16zm0 0" fill="#ebe023"/><path d="m351.777344 392.375c-2.089844 3.472656-1.222656 7.960938 2.015625 10.402344 18.949219 14.074218 30.144531 36.265625 30.207031 59.871094v9.351562c0 4.417969 3.582031 8 8 8s8-3.582031 8-8v-9.359375c-.085938-28.570313-13.597656-55.4375-36.480469-72.542969-1.824219-1.367187-4.140625-1.898437-6.375-1.464844-2.238281.433594-4.1875 1.792969-5.367187 3.742188zm0 0" fill="#b5ad1b"/><path d="m456 136h24v-16h-16v-8h-16v9.472656c-11.011719 3.878906-17.621094 15.132813-15.644531 26.640625 1.980469 11.507813 11.96875 19.910157 23.644531 19.886719 4.417969 0 8 3.582031 8 8s-3.582031 8-8 8h-24v16h16v8h16v-9.472656c11.011719-3.878906 17.621094-15.132813 15.644531-26.640625-1.980469-11.507813-11.96875-19.910157-23.644531-19.886719-4.417969 0-8-3.582031-8-8s3.582031-8 8-8zm0 0" fill="#ebe023"/><path d="m440 344h-16v9.472656c-11.011719 3.878906-17.621094 15.132813-15.644531 26.640625 1.980469 11.507813 11.96875 19.910157 23.644531 19.886719 4.417969 0 8 3.582031 8 8s-3.582031 8-8 8h-24v16h16v8h16v-9.472656c11.011719-3.878906 17.621094-15.132813 15.644531-26.640625-1.980469-11.507813-11.96875-19.910157-23.644531-19.886719-4.417969 0-8-3.582031-8-8s3.582031-8 8-8h24v-16h-16zm0 0" fill="#ebe023"/><path d="m368 92c2.210938 0 4 1.789062 4 4s-1.789062 4-4 4h-8v8h4v4h8v-4.734375c5.4375-1.996094 8.671875-7.59375 7.691406-13.300781-.980468-5.707032-5.898437-9.898438-11.691406-9.964844-2.210938 0-4-1.789062-4-4s1.789062-4 4-4h8v-8h-4v-4h-8v4.734375c-5.4375 1.996094-8.671875 7.59375-7.691406 13.300781.980468 5.707032 5.898437 9.898438 11.691406 9.964844zm0 0" fill="#b5ad1b"/><path d="m179.457031 251.777344-24 36.957031c-2.296875 7.542969-3.460937 15.382813-3.457031 23.265625 0 1 .113281 1.96875.152344 2.960938 27.429687-15.917969 45.210937-44.371094 47.496094-76-7.332032 3.242187-14.136719 7.5625-20.191407 12.816406zm0 0" fill="#c21d0e"/><path d="m80 376c0 8.835938 7.164062 16 16 16s16-7.164062 16-16v-16h-32zm0 0" fill="#8c8c8c"/><path d="m192 224c0 53.019531-42.980469 96-96 96s-96-42.980469-96-96 42.980469-96 96-96 96 42.980469 96 96zm0 0" fill="#ffb41f"/><path d="m64 328h64v16h-64zm0 0" fill="#b0b0b0"/><path d="m64 368h8v8c0 13.253906 10.746094 24 24 24s24-10.746094 24-24v-8h8v-16h-64zm40 8c0 4.417969-3.582031 8-8 8s-8-3.582031-8-8v-8h16zm0 0" fill="#b0b0b0"/><path d="m115.558594 209.34375-19.558594 13.054688-19.558594-13.039063c-2.386718-1.585937-5.4375-1.78125-8-.503906l-32 16 7.152344 14.320312 21.125-10.566406 10.882812 59.847656 15.742188-2.863281-9.742188-53.59375 9.972657 6.648438c2.691406 1.792968 6.195312 1.792968 8.882812 0l9.941407-6.648438-9.742188 53.601562 15.742188 2.863282 10.882812-59.847656 21.144531 10.582031 7.148438-14.320313-32-16c-2.558594-1.292968-5.617188-1.117187-8.015625.464844zm0 0" fill="#ebebeb"/><path d="m104 72c4.417969 0 8 3.582031 8 8v16c0 4.417969-3.582031 8-8 8s-8-3.582031-8-8v-16c0-4.417969 3.582031-8 8-8zm0 0" fill="#fa0"/><path d="m96 128c-17.902344 0-35.441406 5.039062-50.617188 14.535156 46.191407-17.953125 98.457032 2.242188 120.570313 46.59375 22.117187 44.351563 6.796875 98.246094-35.335937 124.335938 43.121093-16.648438 68.242187-61.679688 59.761718-107.117188-8.480468-45.441406-48.15625-78.375-94.378906-78.347656zm0 0" fill="#ffc042"/><g fill="#b5ad1b"><path d="m415.992188 264h24.015624c4.414063 0 7.992188 3.578125 7.992188 7.992188v.015624c0 4.414063-3.578125 7.992188-7.992188 7.992188h-24.015624c-4.414063 0-7.992188-3.578125-7.992188-7.992188v-.015624c0-4.414063 3.578125-7.992188 7.992188-7.992188zm0 0"/><path d="m471.992188 264h.015624c4.414063 0 7.992188 3.578125 7.992188 7.992188v.015624c0 4.414063-3.578125 7.992188-7.992188 7.992188h-.015624c-4.414063 0-7.992188-3.578125-7.992188-7.992188v-.015624c0-4.414063 3.578125-7.992188 7.992188-7.992188zm0 0"/><path d="m375.992188 304h48.015624c4.414063 0 7.992188 3.578125 7.992188 7.992188v.015624c0 4.414063-3.578125 7.992188-7.992188 7.992188h-48.015624c-4.414063 0-7.992188-3.578125-7.992188-7.992188v-.015624c0-4.414063 3.578125-7.992188 7.992188-7.992188zm0 0"/><path d="m455.992188 304h.015624c4.414063 0 7.992188 3.578125 7.992188 7.992188v.015624c0 4.414063-3.578125 7.992188-7.992188 7.992188h-.015624c-4.414063 0-7.992188-3.578125-7.992188-7.992188v-.015624c0-4.414063 3.578125-7.992188 7.992188-7.992188zm0 0"/></g><path d="m408 272c0 22.089844-17.910156 40-40 40s-40-17.910156-40-40 17.910156-40 40-40 40 17.910156 40 40zm0 0" fill="#ebe023"/><path d="m372 296v-4.734375c5.4375-1.996094 8.671875-7.59375 7.691406-13.300781-.980468-5.707032-5.898437-9.898438-11.691406-9.964844-2.210938 0-4-1.789062-4-4s1.789062-4 4-4h8v-8h-4v-4h-8v4.734375c-5.4375 1.996094-8.671875 7.59375-7.691406 13.300781.980468 5.707032 5.898437 9.898438 11.691406 9.964844 2.210938 0 4 1.789062 4 4s-1.789062 4-4 4h-8v8h4v4zm0 0" fill="#b5ad1b"/></svg>