<svg height="511pt" viewBox="-79 1 511 511.99998" width="511pt" xmlns="http://www.w3.org/2000/svg"><path d="m36.164062 0h281.777344c19.695313 0 35.660156 15.96875 35.660156 35.664062v440.671876c0 19.695312-15.964843 35.664062-35.660156 35.664062h-281.777344c-19.695312 0-35.664062-15.96875-35.664062-35.664062v-440.671876c0-19.695312 15.96875-35.664062 35.664062-35.664062zm0 0" fill="#ccdaec"/><path d="m158.300781 238.40625-20.578125-31.292969-31.292968 20.578125 21.867187-105.886718 51.738281 11.351562zm0 0" fill="#db98a4"/><path d="m198.785156 238.40625 20.578125-31.292969 31.292969 20.578125-21.867188-105.886718-51.738281 11.351562zm0 0" fill="#db98a4"/><g fill="#4d8ebe"><path d="m62.292969 282.484375h229.519531v17.652344h-229.519531zm0 0"/><path d="m62.292969 344.277344h229.519531v17.652344h-229.519531zm0 0"/><path d="m62.292969 414.898438h229.519531v17.652343h-229.519531zm0 0"/></g><path d="m238.84375 97.101562c0 34.128907-27.664062 61.796876-61.792969 61.796876-34.125 0-61.792969-27.667969-61.792969-61.796876 0-34.125 27.667969-61.792968 61.792969-61.792968 34.128907 0 61.792969 27.667968 61.792969 61.792968zm0 0" fill="#ffd789"/></svg>