<?xml version="1.0" encoding="iso-8859-1"?>
<!-- Generator: Adobe Illustrator 19.0.0, SVG Export Plug-In . SVG Version: 6.00 Build 0)  -->
<svg version="1.1" id="Layer_1" xmlns="http://www.w3.org/2000/svg" xmlns:xlink="http://www.w3.org/1999/xlink" x="0px" y="0px"
	 viewBox="0 0 512 512" style="enable-background:new 0 0 512 512;" xml:space="preserve">
<path style="fill:#FFA141;" d="M52.496,73.49h407.006c21.914,0,39.844,17.928,39.844,39.843v285.333
	c0,21.916-17.931,39.844-39.844,39.844H52.496c-21.914,0-39.842-17.928-39.842-39.844V113.333
	C12.653,91.418,30.582,73.49,52.496,73.49L52.496,73.49z"/>
<path style="fill:#FF7125;" d="M499.346,256v142.666c0,21.916-17.931,39.844-39.844,39.844H52.496
	c-21.914,0-39.842-17.928-39.842-39.844V256H499.346z"/>
<path style="fill:#FD9702;" d="M459.608,73.492c8.142,7.307,13.287,17.897,13.287,29.631v285.333
	c0,21.916-17.931,39.844-39.844,39.844H26.044c-0.036,0-0.07-0.003-0.106-0.003c7.062,6.339,16.378,10.211,26.556,10.211H459.5
	c21.914,0,39.844-17.928,39.844-39.844V113.333C499.346,91.453,481.473,73.551,459.608,73.492z"/>
<path style="fill:#D85919;" d="M472.896,256v132.456c0,21.916-17.931,39.844-39.844,39.844H26.044c-0.036,0-0.07-0.003-0.106-0.003
	c7.062,6.339,16.378,10.211,26.556,10.211H459.5c21.914,0,39.844-17.928,39.844-39.844V256H472.896z"/>
<path style="fill:#FFD191;" d="M145.299,171.898c21.619,0,39.144,17.525,39.144,39.144c0,21.62-17.525,39.145-39.144,39.145
	c-21.622,0-39.147-17.526-39.147-39.145C106.153,189.424,123.678,171.898,145.299,171.898L145.299,171.898z"/>
<path style="fill:#2C5E5C;" d="M88.274,340.103v-44.96c0-24.725,20.23-44.958,44.955-44.958h24.137
	c24.725,0,44.958,20.233,44.958,44.958v44.96H88.274L88.274,340.103z"/>
<path style="fill:#004646;" d="M157.366,250.187h-12.067v89.918h57.025v-44.96C202.325,270.418,182.092,250.187,157.366,250.187z"/>
<path d="M345.02,451.087c-0.082,0-0.163,0-0.245-0.003h-64.281c-0.162,0.003-0.324,0.003-0.485,0h-64.285
	c-0.162,0.003-0.324,0.003-0.485,0h-64.282c-0.163,0.003-0.326,0.004-0.491,0H86.186c-0.163,0.003-0.326,0.004-0.491,0H52.232
	C23.431,451.084,0,427.652,0,398.849V113.148c0-28.801,23.431-52.232,52.232-52.232h49.735c0.163-0.003,0.326-0.003,0.489,0h64.278
	c0.163-0.003,0.326-0.003,0.489,0h64.281c0.162-0.003,0.322-0.003,0.485,0h64.285c0.163-0.003,0.328-0.003,0.491,0h64.279
	c0.163-0.003,0.326-0.003,0.489,0h64.281c0.163-0.003,0.326-0.003,0.491,0h33.46c28.803,0,52.235,23.431,52.235,52.232v285.701
	c0,28.803-23.433,52.235-52.235,52.235h-49.729c-0.163,0.003-0.326,0.003-0.489,0h-64.281
	C345.185,451.086,345.103,451.087,345.02,451.087z M430.296,426.407h29.469c15.196,0,27.558-12.362,27.558-27.558V113.148
	c0-15.194-12.362-27.555-27.558-27.555h-26.288l-12.773,24.121c-3.19,6.021-10.657,8.318-16.678,5.13
	c-6.023-3.189-8.319-10.657-5.13-16.679l6.657-12.572h-36.846l-12.773,24.121c-3.19,6.021-10.657,8.318-16.678,5.13
	c-6.023-3.189-8.319-10.657-5.13-16.679l6.657-12.572h-36.846l-12.773,24.121c-3.189,6.021-10.658,8.318-16.679,5.13
	c-6.023-3.189-8.319-10.657-5.13-16.679l6.659-12.572h-36.847l-12.772,24.121c-3.188,6.023-10.657,8.318-16.678,5.13
	c-6.023-3.189-8.319-10.655-5.132-16.678l6.657-12.573h-36.845l-12.773,24.121c-3.19,6.021-10.657,8.318-16.679,5.13
	c-6.023-3.189-8.319-10.657-5.13-16.679l6.657-12.572h-36.842l-12.773,24.121c-3.19,6.021-10.658,8.318-16.679,5.13
	c-6.021-3.189-8.319-10.657-5.13-16.679l6.657-12.572H52.232c-15.193,0-27.555,12.362-27.555,27.555v285.701
	c0,15.196,12.362,27.558,27.555,27.558h26.291l12.773-24.122c3.189-6.023,10.655-8.318,16.678-5.13
	c6.023,3.189,8.319,10.657,5.13,16.679l-6.657,12.573h36.846l12.773-24.122c3.189-6.023,10.654-8.318,16.678-5.13
	c6.023,3.189,8.319,10.657,5.13,16.679l-6.657,12.573h36.846l12.773-24.122c3.19-6.023,10.655-8.318,16.678-5.13
	c6.023,3.189,8.319,10.655,5.13,16.679l-6.659,12.573h36.847l12.773-24.122c3.189-6.023,10.655-8.318,16.678-5.13
	c6.023,3.189,8.319,10.655,5.13,16.679l-6.657,12.573h36.846l12.773-24.122c3.189-6.023,10.654-8.318,16.679-5.13
	c6.021,3.189,8.319,10.657,5.13,16.679l-6.659,12.573h36.846l12.772-24.121c3.188-6.023,10.655-8.322,16.678-5.132
	c6.021,3.189,8.319,10.655,5.13,16.678L430.296,426.407z M202.255,352.55H88.057c-6.815,0-12.339-5.524-12.339-12.339v-45.017
	c0-21.885,12.321-40.947,30.39-50.612c-7.779-9.028-12.488-20.774-12.488-33.598c0-28.416,23.119-51.533,51.536-51.533
	c28.416,0,51.533,23.117,51.533,51.533c0,12.824-4.709,24.57-12.487,33.598c18.069,9.665,30.392,28.727,30.392,50.613v45.017
	C214.593,347.026,209.07,352.55,202.255,352.55z M100.396,327.873h89.52v-32.678c0-18.019-14.658-32.677-32.677-32.677h-11.708
	c-0.251,0.001-0.505,0.001-0.753,0h-11.709c-18.017,0-32.674,14.658-32.674,32.677v32.678H100.396z M144.882,237.84h0.546
	c14.683-0.147,26.583-12.139,26.583-26.856c0-14.808-12.048-26.856-26.856-26.856c-14.809,0-26.859,12.048-26.859,26.856
	C118.298,225.701,130.198,237.693,144.882,237.84z M426.049,322.697h-145.31c-6.815,0-12.339-5.524-12.339-12.339
	s5.524-12.339,12.339-12.339h145.31c6.815,0,12.339,5.524,12.339,12.339C438.387,317.174,432.864,322.697,426.049,322.697z
	 M426.049,273.677h-145.31c-6.815,0-12.339-5.524-12.339-12.339s5.524-12.339,12.339-12.339h145.31
	c6.815,0,12.339,5.524,12.339,12.339S432.864,273.677,426.049,273.677z M347.437,213.978h-66.699
	c-6.815,0-12.339-5.524-12.339-12.339s5.524-12.339,12.339-12.339h66.699c6.815,0,12.339,5.524,12.339,12.339
	S354.252,213.978,347.437,213.978z"/>
<g>
</g>
<g>
</g>
<g>
</g>
<g>
</g>
<g>
</g>
<g>
</g>
<g>
</g>
<g>
</g>
<g>
</g>
<g>
</g>
<g>
</g>
<g>
</g>
<g>
</g>
<g>
</g>
<g>
</g>
</svg>
