<?xml version="1.0" encoding="iso-8859-1"?>
<!-- Generator: Adobe Illustrator 19.0.0, SVG Export Plug-In . SVG Version: 6.00 Build 0)  -->
<svg version="1.1" id="Layer_1" xmlns="http://www.w3.org/2000/svg" xmlns:xlink="http://www.w3.org/1999/xlink" x="0px" y="0px"
	 viewBox="0 0 512 512" style="enable-background:new 0 0 512 512;" xml:space="preserve">
<path style="fill:#F0F0F1;" d="M496,105.71H16c-4.418,0-8,3.582-8,8v288c0,4.418,3.582,8,8,8h480c4.418,0,8-3.582,8-8v-288
	C504,109.292,500.418,105.71,496,105.71z"/>
<path style="fill:#E1E0E4;" d="M32,393.71c-4.418,0-8-3.582-8-8v-280h-8c-4.418,0-8,3.582-8,8v288c0,4.418,3.582,8,8,8h480
	c4.418,0,8-3.582,8-8v-8H32z"/>
<g>
	<path style="fill:#C3C1C9;" d="M456,281.71h-40c-4.418,0-8-3.582-8-8s3.582-8,8-8h40c4.418,0,8,3.582,8,8
		S460.418,281.71,456,281.71z"/>
	<path style="fill:#C3C1C9;" d="M384,281.71H272c-4.418,0-8-3.582-8-8s3.582-8,8-8h112c4.418,0,8,3.582,8,8
		S388.418,281.71,384,281.71z"/>
	<path style="fill:#C3C1C9;" d="M456,321.71H272c-4.418,0-8-3.582-8-8s3.582-8,8-8h184c4.418,0,8,3.582,8,8
		S460.418,321.71,456,321.71z"/>
	<path style="fill:#C3C1C9;" d="M456,361.71H336c-4.418,0-8-3.582-8-8s3.582-8,8-8h120c4.418,0,8,3.582,8,8
		S460.418,361.71,456,361.71z"/>
	<path style="fill:#C3C1C9;" d="M304,361.71h-32c-4.418,0-8-3.582-8-8s3.582-8,8-8h32c4.418,0,8,3.582,8,8
		S308.418,361.71,304,361.71z"/>
</g>
<path style="fill:#68DEC8;" d="M136,97.71h-32c-4.418,0-8,3.582-8,8v304c0,4.418,3.582,8,8,8h32c4.418,0,8-3.582,8-8v-304
	C144,101.292,140.418,97.71,136,97.71z"/>
<path style="fill:#38C7C2;" d="M504,185.71H8c-4.418,0-8,3.582-8,8v32c0,4.418,3.582,8,8,8h496c4.418,0,8-3.582,8-8v-32
	C512,189.292,508.418,185.71,504,185.71z"/>
<path style="fill:#E6608D;" d="M221.528,244.064c-11.462-11.462-50.912-25.82-76.733-34.354
	c25.821-8.533,65.271-22.892,76.734-34.354c13.523-13.524,17.619-34.843,10.051-52.41c-2.37-5.502-5.816-10.53-10.051-14.765
	c0-0.001,0-0.001,0-0.001c-18.521-18.52-48.655-18.52-67.175,0.001c-11.462,11.462-25.82,50.912-34.353,76.733
	c-8.533-25.821-22.892-65.271-34.354-76.734c-13.524-13.523-34.843-17.619-52.41-10.051c-5.502,2.371-10.53,5.816-14.764,10.051
	c-0.001,0-0.001,0-0.001,0c-18.52,18.521-18.52,48.655,0.001,67.175c11.462,11.462,50.912,25.82,76.733,34.354
	c-25.821,8.533-65.271,22.892-76.734,34.354C4.948,257.588,0.852,278.907,8.42,296.474c2.37,5.502,5.816,10.53,10.051,14.765v0.001
	c18.521,18.52,48.655,18.52,67.175-0.001c11.462-11.462,25.82-50.912,34.353-76.733c8.533,25.821,22.892,65.271,34.354,76.734
	c13.524,13.523,34.843,17.619,52.41,10.051c5.502-2.37,10.53-5.816,14.764-10.051c0.001,0,0.001,0,0.001,0
	C240.049,292.719,240.049,262.584,221.528,244.064z M150.759,169.523c13.529-36.817,20.295-44.09,20.577-44.382
	c9.033-9.034,24.193-9.018,33.223,0.011c9.073,9.074,9.059,24.174-0.001,33.235c-0.279,0.269-7.551,7.035-44.37,20.564
	c-4.99,1.833-9.925,3.572-14.602,5.173C147.187,179.449,148.926,174.511,150.759,169.523z M79.813,178.952
	c-36.817-13.529-44.09-20.295-44.382-20.577c-9.033-9.034-9.018-24.193,0.011-33.223c9.074-9.073,24.174-9.059,33.235,0.001
	c0.269,0.279,7.035,7.551,20.564,44.37c1.833,4.99,3.572,9.925,5.173,14.602C89.738,182.524,84.801,180.785,79.813,178.952z
	 M89.241,249.898c-13.529,36.817-20.295,44.09-20.577,44.382c-9.033,9.034-24.193,9.018-33.223-0.011
	c-9.073-9.074-9.059-24.174,0.001-33.235c0.279-0.269,7.551-7.035,44.37-20.564c4.99-1.833,9.925-3.572,14.602-5.173
	C92.813,239.972,91.074,244.91,89.241,249.898z M204.559,294.269c-9.074,9.073-24.174,9.059-33.235-0.001
	c-0.269-0.279-7.035-7.551-20.564-44.37c-1.833-4.99-3.572-9.925-5.173-14.602c4.676,1.601,9.613,3.34,14.602,5.173
	c36.817,13.529,44.09,20.295,44.382,20.577C213.603,270.08,213.588,285.239,204.559,294.269z"/>
<g>
</g>
<g>
</g>
<g>
</g>
<g>
</g>
<g>
</g>
<g>
</g>
<g>
</g>
<g>
</g>
<g>
</g>
<g>
</g>
<g>
</g>
<g>
</g>
<g>
</g>
<g>
</g>
<g>
</g>
</svg>
