<?xml version="1.0" encoding="iso-8859-1"?>
<!-- Generator: Adobe Illustrator 19.0.0, SVG Export Plug-In . SVG Version: 6.00 Build 0)  -->
<svg version="1.1" id="Capa_1" xmlns="http://www.w3.org/2000/svg" xmlns:xlink="http://www.w3.org/1999/xlink" x="0px" y="0px"
	 viewBox="0 0 512 512" style="enable-background:new 0 0 512 512;" xml:space="preserve">
<path style="fill:#7FD2DD;" d="M376.477,58.252c-17.819,0-34.766,3.721-50.119,10.415c-17.398-28.135-48.524-46.884-84.034-46.884
	c-54.531,0-98.737,44.206-98.737,98.736c0,1.897,0.059,3.781,0.165,5.651c-0.055,0-0.11-0.004-0.165-0.004
	c-54.239,0-98.209,43.97-98.209,98.209c0,54.24,43.97,98.209,98.209,98.209c11.515,0,22.559-2,32.826-5.641
	c5.596,50.12,48.101,89.09,99.715,89.09c54.211,0,98.374-42.99,100.276-96.737c0.024,0,0.048,0.001,0.072,0.001
	c69.324,0,125.523-56.199,125.523-125.523C502,114.451,445.802,58.252,376.477,58.252z"/>
<path d="M276.13,416.034c-52.288,0-96.69-36.366-107.723-86.325c-8.11,1.911-16.419,2.875-24.819,2.875
	c-59.667,0-108.209-48.542-108.209-108.209c0-56.32,43.247-102.729,98.278-107.758c2.062-58.157,50.016-104.835,108.667-104.835
	c35.123,0,67.365,16.523,87.822,44.604c14.815-5.401,30.363-8.135,46.331-8.135C451.205,48.252,512,109.047,512,183.775
	c0,71.635-55.871,130.468-126.324,135.214c-3.006,25.082-14.47,48.248-32.839,66.019
	C332.154,405.016,304.913,416.034,276.13,416.034z M176.415,306.943c1.854,0,3.696,0.516,5.307,1.524
	c2.587,1.62,4.293,4.333,4.632,7.366c5.104,45.721,43.7,80.199,89.776,80.199c48.897,0,88.554-38.255,90.281-87.091
	c0.19-5.382,4.609-9.646,9.994-9.646c0.039,0,0.09,0,0.139,0.001C440.211,299.26,492,247.451,492,183.775
	c0-63.7-51.823-115.523-115.522-115.523c-16.022,0-31.54,3.224-46.122,9.582c-4.563,1.99-9.887,0.323-12.502-3.907
	c-16.318-26.389-44.554-42.143-75.529-42.143c-48.93,0-88.736,39.807-88.736,88.737c0,1.621,0.05,3.332,0.149,5.088
	c0.154,2.746-0.828,5.434-2.717,7.432s-4.518,3.131-7.268,3.131c-0.08,0-0.188-0.002-0.292-0.004
	c-48.581,0.068-88.082,39.612-88.082,88.209c0,48.639,39.57,88.209,88.209,88.209c10.086,0,20.007-1.704,29.485-5.065
	C174.159,307.133,175.289,306.943,176.415,306.943z"/>
<path d="M276.13,376.034c-35.877,0-65.927-26.834-69.9-62.419c-0.612-5.488,3.34-10.435,8.829-11.048
	c5.479-0.614,10.435,3.339,11.048,8.829c2.841,25.448,24.347,44.638,50.023,44.638c27.247,0,49.344-21.306,50.307-48.505
	c0.195-5.52,4.869-9.844,10.348-9.64c5.52,0.195,9.836,4.828,9.641,10.348C345.079,346.253,314.201,376.034,276.13,376.034z"/>
<path d="M462,193.775c-5.522,0-10-4.477-10-10c0-41.644-33.879-75.523-75.522-75.523c-7.939,0-15.728,1.212-23.147,3.604
	c-5.261,1.692-10.892-1.195-12.585-6.451c-1.694-5.256,1.193-10.891,6.45-12.585c9.404-3.031,19.257-4.568,29.282-4.568
	c52.671,0,95.522,42.852,95.522,95.523C472,189.298,467.522,193.775,462,193.775z"/>
<path d="M311.569,127.191c-0.649,0-1.31-0.07-1.96-0.2c-0.63-0.13-1.26-0.32-1.869-0.57c-0.601-0.25-1.181-0.56-1.721-0.92
	c-0.55-0.36-1.06-0.78-1.52-1.24s-0.88-0.97-1.25-1.52c-0.351-0.54-0.66-1.12-0.91-1.73c-0.25-0.6-0.45-1.23-0.57-1.87
	c-0.13-0.64-0.2-1.3-0.2-1.95s0.07-1.31,0.2-1.96c0.12-0.63,0.32-1.26,0.57-1.87c0.25-0.6,0.56-1.18,0.91-1.72
	c0.37-0.55,0.79-1.06,1.25-1.52s0.97-0.88,1.52-1.25c0.54-0.36,1.12-0.67,1.721-0.92c0.609-0.25,1.239-0.44,1.869-0.57
	c1.29-0.26,2.62-0.26,3.91,0c0.641,0.13,1.271,0.32,1.87,0.57c0.61,0.25,1.19,0.56,1.73,0.92c0.55,0.37,1.06,0.79,1.52,1.25
	s0.88,0.97,1.24,1.52c0.36,0.54,0.67,1.12,0.92,1.72c0.25,0.61,0.45,1.24,0.57,1.87c0.13,0.65,0.199,1.31,0.199,1.96
	s-0.069,1.31-0.199,1.95c-0.12,0.64-0.32,1.27-0.57,1.87c-0.25,0.61-0.56,1.19-0.92,1.73c-0.36,0.55-0.78,1.06-1.24,1.52
	s-0.97,0.88-1.52,1.24c-0.54,0.36-1.12,0.67-1.73,0.92c-0.6,0.25-1.229,0.44-1.87,0.57
	C312.88,127.121,312.22,127.191,311.569,127.191z"/>
<path d="M183.681,133.919c-5.266,0-9.676-4.115-9.976-9.438c-0.078-1.383-0.117-2.716-0.117-3.961
	c0-37.902,30.835-68.737,68.736-68.737c20.355,0,39.514,8.903,52.562,24.425c3.554,4.228,3.007,10.536-1.221,14.089
	c-4.229,3.553-10.534,3.008-14.09-1.22c-9.238-10.991-22.815-17.294-37.251-17.294c-26.873,0-48.736,21.863-48.736,48.737
	c0,0.872,0.029,1.826,0.086,2.836c0.311,5.514-3.908,10.236-9.422,10.547C184.061,133.913,183.869,133.919,183.681,133.919z"/>
<path d="M201.339,241.668h-25.913l26.444-34.614c2.51-3.294,3.893-7.01,3.893-10.462c0-6.067-4.183-8.22-7.765-8.22H152.6
	c-4.081,0-7.158,4.252-7.158,9.89c0,5.537,3.211,10.042,7.158,10.042h22.272l-26.295,34.613c-1.953,2.555-4.197,6.002-4.197,10.007
	c0,4.002,2.152,8.676,8.221,8.676h48.74c4.081,0,7.158-4.252,7.158-9.89C208.497,246.172,205.286,241.668,201.339,241.668z"/>
<path d="M395.842,241.668H369.93l26.443-34.614c2.512-3.295,3.894-7.011,3.894-10.462c0-6.067-4.182-8.22-7.764-8.22h-45.401
	c-4.08,0-7.157,4.252-7.157,9.89c0,5.537,3.211,10.042,7.157,10.042h22.272l-26.295,34.613c-1.954,2.557-4.197,6.004-4.197,10.007
	c0,4.002,2.152,8.676,8.22,8.676h48.74c4.081,0,7.158-4.252,7.158-9.89C403,246.172,399.789,241.668,395.842,241.668z"/>
<path d="M305.88,239.997h-40.485l42.42-75.063c1.727-3.139,2.639-6.107,2.639-8.581c0-4.196-2.732-6.701-7.308-6.701h-58.61
	c-5.259,0-7.613,5.425-7.613,10.801c0,6.36,3.131,10.801,7.613,10.801h34.411l-42.415,75.053c-1.682,2.905-2.646,6.036-2.646,8.59
	c0,4.322,2.596,6.702,7.309,6.702h64.684c4.765,0,7.612-5.492,7.612-10.801C313.492,245.49,310.645,239.997,305.88,239.997z"/>
<circle style="fill:#057496;" cx="104.17" cy="399.961" r="38.731"/>
<path d="M104.176,448.69c-26.87,0-48.73-21.861-48.73-48.731s21.86-48.73,48.73-48.73s48.73,21.86,48.73,48.73
	C152.906,426.83,131.046,448.69,104.176,448.69z M104.176,371.229c-15.842,0-28.73,12.888-28.73,28.73
	c0,15.842,12.889,28.731,28.73,28.731s28.73-12.889,28.73-28.731S120.018,371.229,104.176,371.229z"/>
<circle style="fill:#057496;" cx="32.944" cy="467.271" r="22.944"/>
<path d="M32.944,500.219C14.778,500.219,0,485.44,0,467.273c0-18.166,14.778-32.944,32.944-32.944
	c18.165,0,32.943,14.778,32.943,32.944S51.109,500.219,32.944,500.219z M32.944,454.331c-7.138,0-12.944,5.807-12.944,12.944
	c0,7.138,5.807,12.944,12.944,12.944s12.943-5.807,12.943-12.944C45.888,460.136,40.081,454.331,32.944,454.331z"/>
<g>
</g>
<g>
</g>
<g>
</g>
<g>
</g>
<g>
</g>
<g>
</g>
<g>
</g>
<g>
</g>
<g>
</g>
<g>
</g>
<g>
</g>
<g>
</g>
<g>
</g>
<g>
</g>
<g>
</g>
</svg>
