<?xml version="1.0" encoding="iso-8859-1"?>
<!-- Generator: Adobe Illustrator 19.0.0, SVG Export Plug-In . SVG Version: 6.00 Build 0)  -->
<svg version="1.1" id="Capa_1" xmlns="http://www.w3.org/2000/svg" xmlns:xlink="http://www.w3.org/1999/xlink" x="0px" y="0px"
	 viewBox="0 0 480 480" style="enable-background:new 0 0 480 480;" xml:space="preserve">
<polygon style="fill:#B02700;" points="200,280 200,320 336,216 472,320 472,280 336,176 "/>
<polygon style="fill:#2C83A3;" points="32,208 104,160 200,224 387.024,85.688 400.272,104 448,8 344,26.216 358.928,46.848 
	200,168 104,104 8,168 "/>
<g>
	<rect x="304" y="344" style="fill:#F29316;" width="64" height="72"/>
	<rect x="240" y="344" style="fill:#F29316;" width="64" height="72"/>
	<rect x="368" y="344" style="fill:#F29316;" width="64" height="72"/>
</g>
<g>
	<path style="fill:#FCE3C3;" d="M200,320v152h272V320L336,216L200,320z M312,312h-16H312z M432,416h-64h-64h-64v-72h64h64h64V416z
		 M376,312h-16H376z M328,312h16H328z"/>
	<polygon style="fill:#FCE3C3;" points="104,256 8,320 8,472 72,472 72,344 136,344 136,472 200,472 200,320 	"/>
</g>
<g>
	<polygon style="fill:#B02700;" points="200,320 200,280 104,216 8,280 8,320 104,256 	"/>
	<rect x="72" y="344" style="fill:#B02700;" width="64" height="128"/>
</g>
<g>
	<path style="fill:#3A0D03;" d="M340.856,169.648c-2.872-2.2-6.84-2.2-9.72,0L199.68,270.176l-91.248-60.832
		c-2.688-1.8-6.184-1.8-8.872,0l-96,64C1.336,274.832,0,277.328,0,280v192c0,4.424,3.576,8,8,8h64h64h64h272c4.424,0,8-3.576,8-8
		V280c0-2.496-1.168-4.84-3.144-6.352L340.856,169.648z M336,186.072l128,97.88v19.864l-123.144-94.168c-2.872-2.2-6.84-2.2-9.72,0
		L208,303.808v-19.856L336,186.072z M104,225.616l88,58.664v20.768l-83.56-55.712c-2.688-1.8-6.184-1.8-8.872,0L16,305.056v-20.768
		L104,225.616z M16,324.28l88-58.664l88,58.664V464h-48V344c0-4.424-3.576-8-8-8H72c-4.424,0-8,3.576-8,8v120H16V324.28z M80,464
		V352h48v112H80z M208,464V323.952l128-97.88l128,97.88V464H208z"/>
	<path style="fill:#3A0D03;" d="M1.144,172.12l24,40c1.128,1.872,2.968,3.208,5.104,3.688c2.16,0.496,4.376,0.072,6.192-1.152
		l67.56-45.04l91.56,61.04c1.344,0.896,2.896,1.344,4.44,1.344c1.672,0,3.344-0.52,4.76-1.568L385.28,96.928l8.504,11.76
		c1.64,2.272,4.368,3.472,7.144,3.288c2.8-0.232,5.256-1.904,6.504-4.416l47.728-96c1.344-2.704,1.056-5.928-0.76-8.352
		c-1.808-2.416-4.824-3.568-7.792-3.096l-104,18.216c-2.712,0.48-4.992,2.32-6.032,4.872s-0.688,5.464,0.928,7.696L347.856,45.2
		L199.688,158.176L108.44,97.344c-2.688-1.8-6.184-1.8-8.872,0l-96,64C0.008,163.712-1.056,168.456,1.144,172.12z M104,113.616
		l91.56,61.04c2.832,1.888,6.56,1.784,9.288-0.296L363.776,53.2c3.456-2.624,4.168-7.528,1.632-11.048l-7.432-10.264l75.816-13.28
		L399,88.592L393.504,81c-1.256-1.736-3.152-2.888-5.256-3.216c-2.12-0.336-4.272,0.208-5.984,1.48L199.76,214.224l-91.32-60.88
		c-1.344-0.896-2.896-1.344-4.44-1.344s-3.096,0.448-4.44,1.344l-65.016,43.344l-15.768-26.264L104,113.616z"/>
	<path style="fill:#3A0D03;" d="M448,120c8.824,0,16,7.176,16,16h16c0-14.872-10.232-27.288-24-30.864V88h-16v17.136
		c-13.768,3.576-24,15.992-24,30.864c0,17.648,14.352,32,32,32c8.824,0,16,7.176,16,16s-7.176,16-16,16s-16-7.176-16-16h-16
		c0,14.872,10.232,27.288,24,30.864V232h16v-17.136c13.768-3.576,24-15.992,24-30.864c0-17.648-14.352-32-32-32
		c-8.824,0-16-7.176-16-16S439.176,120,448,120z"/>
	<path style="fill:#3A0D03;" d="M432,336h-64h-64h-64c-4.424,0-8,3.576-8,8v72c0,4.424,3.576,8,8,8h64h64h64c4.424,0,8-3.576,8-8
		v-72C440,339.576,436.424,336,432,336z M248,352h48v56h-48V352z M312,352h48v56h-48V352z M424,408h-48v-56h48V408z"/>
	<rect x="296" y="304" style="fill:#3A0D03;" width="16" height="16"/>
	<rect x="328" y="304" style="fill:#3A0D03;" width="16" height="16"/>
	<rect x="360" y="304" style="fill:#3A0D03;" width="16" height="16"/>
	<rect x="160" style="fill:#3A0D03;" width="96" height="16"/>
	<rect x="128" style="fill:#3A0D03;" width="16" height="16"/>
	<rect x="96" style="fill:#3A0D03;" width="16" height="16"/>
	<rect x="64" style="fill:#3A0D03;" width="16" height="16"/>
	<rect x="96" y="32" style="fill:#3A0D03;" width="96" height="16"/>
	<rect x="64" y="32" style="fill:#3A0D03;" width="16" height="16"/>
	<rect x="32" y="32" style="fill:#3A0D03;" width="16" height="16"/>
	<rect y="32" style="fill:#3A0D03;" width="16" height="16"/>
</g>
<g>
</g>
<g>
</g>
<g>
</g>
<g>
</g>
<g>
</g>
<g>
</g>
<g>
</g>
<g>
</g>
<g>
</g>
<g>
</g>
<g>
</g>
<g>
</g>
<g>
</g>
<g>
</g>
<g>
</g>
</svg>
