<?xml version="1.0" encoding="iso-8859-1"?>
<!-- Generator: Adobe Illustrator 19.0.0, SVG Export Plug-In . SVG Version: 6.00 Build 0)  -->
<svg version="1.1" id="Capa_1" xmlns="http://www.w3.org/2000/svg" xmlns:xlink="http://www.w3.org/1999/xlink" x="0px" y="0px"
	 viewBox="0 0 512.001 512.001" style="enable-background:new 0 0 512.001 512.001;" xml:space="preserve">
<g>
	<path style="fill:#F9AD32;" d="M46,50.002h160.001V29.999c0-11-8.998-19.999-19.999-19.999H65.999C54.998,10,46,18.999,46,29.999
		V50.002z"/>
	<path style="fill:#FFD278;" d="M206.001,50.002H46v300c0,11.002,9,20.001,20.001,20.001h20.003h139.998h12.499h35h12.5h139.998
		h20.002c11,0,20-8.999,20-20.001v-280c0-11.002-9-20.001-20-20.001h-20.002h-50.821h-89.177h-59.999L206.001,50.002L206.001,50.002
		z M194.805,166.137c12.732,0,30.389-9.663,34.381-24.562h26.815h26.815c3.992,14.9,21.648,24.562,34.381,24.562v30.706
		c0,57.608-52.647,81.586-61.195,81.586c-8.549,0-61.196-23.978-61.196-81.586L194.805,166.137L194.805,166.137z"/>
	<path style="fill:#80A7FF;" d="M229.186,141.575c-3.992,14.9-21.648,24.562-34.381,24.562v30.706
		c0,57.608,52.648,81.586,61.196,81.586c8.548,0,61.195-23.978,61.195-81.586v-30.706c-12.732,0-30.389-9.663-34.381-24.562H256
		H229.186z"/>
	<g>
		<rect x="238.5" y="370" style="fill:#BCCBD3;" width="35" height="71.999"/>
		<rect x="76" y="454.5" style="fill:#BCCBD3;" width="120" height="35"/>
		<rect x="316" y="454.5" style="fill:#BCCBD3;" width="120" height="35"/>
	</g>
	<polygon style="fill:#80A7FF;" points="316,489.502 316,454.502 316,442.002 273.501,442.002 238.501,442.002 196,442.002 
		196,454.502 196,489.502 196,502.002 316,502.002 	"/>
</g>
<path d="M446.001,40.002h-230V29.999C216.001,13.458,202.543,0,186.002,0H65.999C49.458,0,36,13.458,36,29.999v320.003
	c0,16.542,13.458,30.001,30.001,30.001h162.5v51.998H196c-5.522,0-10,4.477-10,10v2.501H76.001c-5.522,0-10,4.477-10,10v35
	c0,5.523,4.478,10,10,10H186v2.499c0,5.523,4.478,10,10,10h120c5.523,0,10-4.477,10-10v-2.499h110c5.523,0,10-4.477,10-10v-35
	c0-5.523-4.477-10-10-10H326v-2.501c0-5.523-4.477-10-10-10h-32.499v-51.998h162.5c16.542,0,30-13.458,30-30.001v-280
	C476.001,53.46,462.543,40.002,446.001,40.002z M65.999,20h120.003c5.514,0,9.999,4.485,9.999,9.999v10.003H56V29.999
	C56,24.485,60.485,20,65.999,20z M86.001,479.502v-15H186v15H86.001z M426,464.502v15H326v-15H426z M306,454.502v35v2.499H206
	v-2.499v-35v-2.501h32.481c0.007,0,0.013,0.001,0.02,0.001h35c0.007,0,0.013-0.001,0.02-0.001H306V454.502z M263.501,432.001h-15
	v-51.998h15V432.001z M456.001,350.002c0,5.515-4.486,10.001-10,10.001h-172.5h-35h-172.5c-5.515,0-10.001-4.486-10.001-10.001v-290
	h150.001h240c5.514,0,10,4.486,10,10.001V350.002z"/>
<path d="M117.033,80.001H85.999c-5.522,0-10,4.477-10,10s4.478,10,10,10h31.034c5.522,0,10-4.477,10-10
	C127.033,84.478,122.556,80.001,117.033,80.001z"/>
<path d="M146,80.001h-0.236c-5.522,0-10,4.477-10,10s4.478,10,10,10H146c5.522,0,10-4.477,10-10S151.523,80.001,146,80.001z"/>
<path d="M366.237,323.002h-0.236c-5.522,0-10,4.477-10,10s4.478,10,10,10h0.236c5.522,0,10-4.477,10-10
	S371.76,323.002,366.237,323.002z"/>
<path d="M426.002,323.002h-31.034c-5.522,0-10,4.477-10,10s4.478,10,10,10h31.034c5.522,0,10-4.477,10-10
	S431.524,323.002,426.002,323.002z"/>
<path d="M317.196,156.137c-9.308,0-22.134-7.492-24.722-17.15c-1.172-4.372-5.133-7.412-9.659-7.412h-53.63
	c-4.526,0-8.487,3.04-9.659,7.412c-2.588,9.658-15.414,17.15-24.722,17.15c-5.522,0-10,4.477-10,10v30.706
	c0,34.185,16.637,56.788,30.593,69.728c14.56,13.501,32.412,21.857,40.604,21.857c8.19,0,26.043-8.356,40.603-21.857
	c13.956-12.941,30.593-35.543,30.593-69.728v-30.706C327.196,160.614,322.719,156.137,317.196,156.137z M307.196,196.844
	c0,49.667-44.323,70.021-51.195,71.531c-6.872-1.51-51.196-21.863-51.196-71.531v-21.978c12.273-3.019,24.851-11.273,31.139-23.291
	h40.114c6.288,12.018,18.866,20.272,31.139,23.291L307.196,196.844L307.196,196.844z"/>
<g>
</g>
<g>
</g>
<g>
</g>
<g>
</g>
<g>
</g>
<g>
</g>
<g>
</g>
<g>
</g>
<g>
</g>
<g>
</g>
<g>
</g>
<g>
</g>
<g>
</g>
<g>
</g>
<g>
</g>
</svg>
