<?xml version="1.0" encoding="iso-8859-1"?>
<!-- Generator: Adobe Illustrator 19.0.0, SVG Export Plug-In . SVG Version: 6.00 Build 0)  -->
<svg version="1.1" id="Capa_1" xmlns="http://www.w3.org/2000/svg" xmlns:xlink="http://www.w3.org/1999/xlink" x="0px" y="0px"
	 viewBox="0 0 511.999 511.999" style="enable-background:new 0 0 511.999 511.999;" xml:space="preserve">
<rect x="82.569" y="71.61" style="fill:#4B7C91;" width="312.61" height="50.82"/>
<rect x="82.569" y="122.43" style="fill:#FFF6E1;" width="312.61" height="337.71"/>
<g>
	<polygon style="fill:#FFD974;" points="351.417,71.614 336.121,29.763 221.612,71.614 	"/>
	<polygon style="fill:#FFD974;" points="469.495,394.688 395.176,191.344 395.176,421.851 	"/>
	<polygon style="fill:#FFD974;" points="160.584,460.149 175.88,502 290.389,460.149 	"/>
	<polygon style="fill:#FFD974;" points="82.565,122.434 82.565,122.434 42.505,137.075 82.565,246.681 	"/>
</g>
<path d="M317.69,330.33c-0.649,0-1.31-0.07-1.96-0.2c-0.63-0.13-1.26-0.32-1.87-0.57c-0.6-0.25-1.18-0.56-1.72-0.92
	c-0.55-0.359-1.06-0.78-1.52-1.24s-0.88-0.97-1.25-1.52c-0.36-0.54-0.67-1.12-0.92-1.73c-0.25-0.6-0.44-1.229-0.57-1.869
	c-0.13-0.641-0.19-1.301-0.19-1.95c0-0.65,0.061-1.311,0.19-1.96c0.13-0.63,0.32-1.261,0.57-1.87c0.25-0.601,0.56-1.181,0.92-1.72
	c0.37-0.551,0.79-1.061,1.25-1.521s0.97-0.88,1.52-1.25c0.54-0.36,1.12-0.67,1.72-0.92c0.61-0.25,1.24-0.44,1.87-0.57
	c1.29-0.26,2.62-0.26,3.91,0c0.641,0.13,1.271,0.32,1.87,0.57s1.19,0.56,1.73,0.92c0.55,0.37,1.06,0.79,1.52,1.25
	s0.88,0.97,1.24,1.521c0.359,0.539,0.67,1.119,0.92,1.72c0.25,0.609,0.439,1.24,0.57,1.87c0.13,0.649,0.199,1.31,0.199,1.96
	c0,0.649-0.069,1.31-0.199,1.95c-0.131,0.64-0.32,1.27-0.57,1.869c-0.25,0.61-0.561,1.19-0.92,1.73c-0.36,0.55-0.78,1.06-1.24,1.52
	s-0.97,0.881-1.52,1.24c-0.54,0.36-1.131,0.67-1.73,0.92s-1.229,0.44-1.87,0.57C319,330.26,318.34,330.33,317.69,330.33z"/>
<path d="M283.052,330.328H160.053c-5.522,0-10-4.478-10-10s4.478-10,10-10h122.999c5.522,0,10,4.478,10,10
	S288.575,330.328,283.052,330.328z"/>
<path d="M317.69,417.729c-0.649,0-1.31-0.069-1.96-0.199c-0.63-0.12-1.26-0.32-1.87-0.57c-0.6-0.25-1.18-0.561-1.72-0.92
	c-0.55-0.36-1.06-0.78-1.52-1.24s-0.88-0.97-1.25-1.52c-0.36-0.54-0.67-1.12-0.92-1.721c-0.25-0.609-0.44-1.24-0.57-1.88
	s-0.19-1.3-0.19-1.95c0-0.649,0.061-1.31,0.19-1.949c0.13-0.641,0.32-1.271,0.57-1.881c0.25-0.6,0.56-1.18,0.92-1.72
	c0.37-0.55,0.79-1.06,1.25-1.52s0.97-0.88,1.52-1.24c0.54-0.36,1.12-0.67,1.72-0.92c0.61-0.25,1.24-0.45,1.87-0.57
	c1.29-0.26,2.62-0.27,3.91,0c0.641,0.12,1.271,0.32,1.87,0.57s1.19,0.56,1.73,0.92c0.55,0.36,1.06,0.78,1.52,1.24
	s0.88,0.97,1.24,1.52c0.359,0.54,0.67,1.12,0.92,1.72c0.25,0.61,0.439,1.24,0.57,1.881c0.13,0.64,0.199,1.3,0.199,1.949
	c0,0.65-0.069,1.311-0.199,1.95c-0.131,0.64-0.32,1.271-0.57,1.88c-0.25,0.601-0.561,1.181-0.92,1.721
	c-0.36,0.55-0.78,1.06-1.24,1.52s-0.97,0.88-1.52,1.24c-0.54,0.359-1.131,0.67-1.73,0.92s-1.229,0.45-1.87,0.57
	C319,417.66,318.34,417.729,317.69,417.729z"/>
<path d="M283.052,417.73H160.053c-5.522,0-10-4.478-10-10s4.478-10,10-10h122.999c5.522,0,10,4.478,10,10
	S288.575,417.73,283.052,417.73z"/>
<path d="M317.688,374.029H160.053c-5.522,0-10-4.478-10-10s4.478-10,10-10h157.635c5.522,0,10,4.478,10,10
	S323.21,374.029,317.688,374.029z"/>
<path style="fill:#FF3C63;" d="M394.489,216.813c0,8.226-9.332,14.537-12.298,21.69c-3.075,7.415-1.054,18.449-6.642,24.037
	s-16.622,3.567-24.036,6.642c-7.153,2.966-13.464,12.298-21.69,12.298s-14.537-9.332-21.69-12.298
	c-7.415-3.075-18.449-1.054-24.037-6.642c-5.588-5.588-3.567-16.622-6.642-24.036c-2.966-7.153-12.298-13.464-12.298-21.69
	s9.332-14.537,12.298-21.69c3.075-7.415,1.054-18.449,6.642-24.037s16.622-3.567,24.036-6.642
	c7.153-2.966,13.464-12.298,21.69-12.298s14.537,9.332,21.69,12.298c7.415,3.075,18.449,1.054,24.037,6.642
	c5.588,5.588,3.567,16.622,6.642,24.036C385.157,202.276,394.489,208.587,394.489,216.813z"/>
<path d="M329.82,252.03c-0.649,0-1.31-0.07-1.949-0.2c-0.641-0.12-1.271-0.32-1.87-0.57c-0.61-0.25-1.19-0.56-1.73-0.92
	c-0.55-0.36-1.06-0.78-1.52-1.24s-0.88-0.97-1.24-1.52c-0.36-0.54-0.67-1.12-0.92-1.73c-0.25-0.6-0.44-1.229-0.57-1.87
	c-0.13-0.64-0.2-1.3-0.2-1.949c0-0.65,0.07-1.311,0.2-1.95c0.13-0.641,0.32-1.271,0.57-1.87c0.25-0.61,0.56-1.19,0.92-1.73
	c0.36-0.55,0.78-1.06,1.24-1.52s0.97-0.88,1.52-1.24c0.54-0.37,1.12-0.67,1.73-0.92c0.6-0.25,1.229-0.45,1.87-0.57
	c3.25-0.66,6.699,0.41,9.02,2.73c0.46,0.46,0.88,0.97,1.25,1.52c0.36,0.54,0.67,1.12,0.92,1.73c0.25,0.6,0.44,1.229,0.57,1.87
	c0.13,0.64,0.189,1.3,0.189,1.95c0,0.649-0.06,1.31-0.189,1.949c-0.13,0.641-0.32,1.271-0.57,1.87c-0.25,0.61-0.56,1.19-0.92,1.73
	c-0.37,0.55-0.79,1.06-1.25,1.52C335.031,250.96,332.451,252.03,329.82,252.03z"/>
<path d="M329.823,220.395c-5.522,0-10-4.478-10-10v-18.799c0-5.522,4.478-10,10-10s10,4.478,10,10v18.799
	C339.823,215.917,335.345,220.395,329.823,220.395z"/>
<path d="M478.888,391.256l-73.712-201.683V71.614c0-5.522-4.478-10-10-10H358.41L345.514,26.33c-0.91-2.491-2.773-4.519-5.179-5.636
	c-2.405-1.119-5.155-1.232-7.646-0.324l-60.738,22.199C265.917,18.157,243.838,0,217.588,0c-30.88,0-56.003,25.123-56.003,56.003
	v5.611h-79.02c-5.522,0-10,4.478-10,10v43.827l-33.492,12.241c-5.188,1.896-7.855,7.638-5.96,12.825l39.452,107.944v211.696
	c0,5.522,4.478,10,10,10h71.026l12.896,35.284c0.91,2.491,2.773,4.519,5.179,5.636c1.333,0.62,2.771,0.932,4.214,0.932
	c1.16,0,2.322-0.202,3.433-0.607l112.848-41.244h103.016c5.522,0,10-4.478,10-10v-31.305l67.752-24.762
	c2.491-0.91,4.519-2.773,5.636-5.179C479.682,396.497,479.798,393.747,478.888,391.256z M385.176,112.434H243.174v-30.82l0,0
	h142.002l0,0V112.434z M181.585,112.434v-30.82h8.85v30.819L181.585,112.434L181.585,112.434z M223.161,132.434
	c-0.138,11.348-9.401,20.541-20.782,20.541c-11.38,0-20.644-9.193-20.781-20.541H223.161z M210.435,112.434v-30.82h12.739l0,0l0,0
	v30.819L210.435,112.434L210.435,112.434z M330.162,42.588l6.954,19.026h-59.012L330.162,42.588z M181.585,56.003
	c0-19.853,16.15-36.003,36.003-36.003c17.631,0,32.331,12.742,35.403,29.498l-14.726,5.382c-4.787-6.697-12.62-11.076-21.462-11.076
	c-11.544,0-21.372,7.46-24.935,17.81h-10.283L181.585,56.003L181.585,56.003z M92.565,81.614h69.021v30.819H92.565V81.614z
	 M55.33,143.035l17.234-6.3v53.454L55.33,143.035z M181.839,489.175l-6.954-19.026h59.012L181.839,489.175z M385.176,450.148H92.565
	V132.434h69.027c0.137,22.378,18.378,40.541,40.788,40.541s40.651-18.163,40.789-40.541h142.008v34.712
	c-0.729-1.089-1.567-2.14-2.557-3.13c-5.808-5.807-13.606-6.715-19.872-7.444c-2.813-0.327-5.721-0.666-7.405-1.364
	c-1.498-0.621-3.68-2.37-5.79-4.062c-5.001-4.01-11.225-8.999-19.729-8.999s-14.729,4.989-19.73,8.999
	c-2.109,1.691-4.292,3.44-5.79,4.062c-1.684,0.698-4.592,1.036-7.404,1.364c-6.267,0.729-14.065,1.636-19.873,7.444
	c-5.807,5.808-6.715,13.605-7.444,19.871c-0.327,2.813-0.665,5.721-1.364,7.406c-0.621,1.498-2.37,3.68-4.062,5.79
	c-4.01,5.001-8.999,11.225-8.999,19.729s4.99,14.729,8.999,19.73c1.691,2.11,3.44,4.292,4.062,5.79
	c0.699,1.685,1.037,4.593,1.364,7.405c0.729,6.267,1.638,14.064,7.444,19.872c5.808,5.807,13.605,6.715,19.871,7.444
	c2.813,0.327,5.721,0.665,7.406,1.364c1.498,0.621,3.68,2.37,5.79,4.062c5.001,4.01,11.225,8.999,19.73,8.999
	s14.729-4.989,19.729-8.999c2.11-1.691,4.292-3.44,5.791-4.062c1.685-0.699,4.593-1.037,7.405-1.364
	c6.266-0.729,14.063-1.638,19.871-7.444c0.99-0.99,1.828-2.042,2.557-3.13L385.176,450.148L385.176,450.148z M384.489,216.813
	c0,1.478-2.771,4.934-4.604,7.221c-2.447,3.053-5.221,6.513-6.932,10.639c-1.768,4.262-2.293,8.773-2.756,12.755
	c-0.291,2.5-0.833,7.153-1.721,8.041c-0.888,0.888-5.541,1.43-8.041,1.721c-3.98,0.463-8.493,0.988-12.754,2.756
	c-4.127,1.711-7.587,4.484-10.64,6.932c-2.286,1.833-5.742,4.604-7.22,4.604c-1.479,0-4.935-2.771-7.221-4.604
	c-3.053-2.447-6.513-5.221-10.639-6.932c-4.262-1.768-8.774-2.293-12.755-2.756c-2.5-0.291-7.153-0.833-8.041-1.721
	s-1.43-5.541-1.721-8.041c-0.463-3.981-0.988-8.494-2.756-12.755c-1.711-4.127-4.484-7.586-6.932-10.639
	c-1.833-2.287-4.604-5.742-4.604-7.221c0-1.478,2.771-4.934,4.604-7.22c2.447-3.053,5.221-6.513,6.932-10.639
	c1.768-4.262,2.293-8.774,2.756-12.755c0.291-2.501,0.833-7.154,1.721-8.042s5.542-1.43,8.042-1.721
	c3.98-0.463,8.492-0.988,12.753-2.755c4.127-1.711,7.587-4.484,10.64-6.932c2.287-1.833,5.743-4.604,7.221-4.604
	s4.934,2.771,7.22,4.604c3.053,2.447,6.513,5.221,10.64,6.932c4.261,1.767,8.772,2.292,12.753,2.755
	c2.5,0.292,7.154,0.833,8.042,1.722c0.889,0.888,1.43,5.542,1.722,8.042c0.463,3.98,0.988,8.492,2.755,12.753
	c1.711,4.127,4.484,7.587,6.932,10.64C381.718,211.879,384.489,215.335,384.489,216.813z M405.176,407.549V247.836l51.494,140.893
	L405.176,407.549z"/>
<g>
</g>
<g>
</g>
<g>
</g>
<g>
</g>
<g>
</g>
<g>
</g>
<g>
</g>
<g>
</g>
<g>
</g>
<g>
</g>
<g>
</g>
<g>
</g>
<g>
</g>
<g>
</g>
<g>
</g>
</svg>
