<?xml version="1.0" encoding="iso-8859-1"?>
<!-- Generator: Adobe Illustrator 19.0.0, SVG Export Plug-In . SVG Version: 6.00 Build 0)  -->
<svg version="1.1" id="Capa_1" xmlns="http://www.w3.org/2000/svg" xmlns:xlink="http://www.w3.org/1999/xlink" x="0px" y="0px"
	 viewBox="0 0 497.566 497.566" style="enable-background:new 0 0 497.566 497.566;" xml:space="preserve">
<path style="fill:#4FBF9F;" d="M434.189,401.067L434.189,401.067c0-31.03,24.824-55.855,55.079-55.855l0,0H64.153
	c-31.03,0-55.855,24.824-55.855,55.855l0,0c0,31.03,24.824,55.855,55.855,55.855h425.115l0,0
	C459.013,456.921,434.189,432.097,434.189,401.067z"/>
<path style="fill:#193651;" d="M489.268,449.164c-26.376,0-48.097-21.721-48.097-48.097s21.721-48.097,48.097-48.097
	c3.879,0,7.758-3.879,7.758-7.758c0-4.655-3.103-7.758-7.758-7.758H64.153c-34.909,0-63.612,28.703-63.612,63.612
	s28.703,63.612,63.612,63.612h425.115c4.655,0,7.758-3.879,7.758-7.758S493.922,449.164,489.268,449.164z M64.153,449.164
	c-26.376,0-48.097-21.721-48.097-48.097s21.721-48.097,48.097-48.097h384c-13.188,11.636-22.497,28.703-22.497,48.097
	c0,19.394,8.533,36.461,22.497,48.097H64.153z"/>
<g>
	<path style="fill:#FFFFFF;" d="M64.153,425.891c-13.964,0-24.824-10.861-24.824-24.824s10.861-24.824,24.824-24.824h342.109
		c-2.327,7.758-3.879,16.291-3.879,24.824c0,8.533,1.552,17.067,3.879,24.824H64.153z"/>
	<polygon style="fill:#FFFFFF;" points="216.977,489.503 182.844,463.127 148.71,489.503 148.71,401.067 216.977,401.067 	"/>
</g>
<g>
	<path style="fill:#193651;" d="M212.322,495.709l-29.479-22.497l-29.479,22.497c-2.327,1.552-5.43,2.327-8.533,0.776
		c-2.327-1.551-4.655-3.879-4.655-6.982v-88.436c0-4.655,3.103-7.758,7.758-7.758h67.491c4.655,0,7.758,3.103,7.758,7.758v88.436
		c0,3.103-1.552,5.43-4.655,6.982C217.753,498.036,214.65,498.036,212.322,495.709z M156.468,408.824v65.164l21.721-17.067
		c3.103-2.327,6.982-2.327,9.309,0l21.721,17.067v-65.164H156.468z"/>
	<path style="fill:#193651;" d="M434.189,408.824H79.668c-4.655,0-7.758-3.103-7.758-7.758s3.103-7.758,7.758-7.758h354.521
		c4.655,0,7.758,3.103,7.758,7.758C441.947,405.721,438.068,408.824,434.189,408.824z"/>
</g>
<polygon style="fill:#2EA2DB;" points="351.183,345.212 351.183,90.764 297.656,14.739 244.129,90.764 244.129,345.212 "/>
<path style="fill:#193651;" d="M358.941,352.97h-122.57V88.436l61.285-87.661l61.285,87.661V352.97z M251.886,337.455h90.764V93.091
	l-45.77-65.164l-45.77,65.164L251.886,337.455z"/>
<rect x="276.71" y="90.764" style="fill:#FFFFFF;" width="41.891" height="246.691"/>
<polyline style="fill:#FDBF5E;" points="350.407,90.764 297.656,14.739 244.904,90.764 "/>
<g>
	<polygon style="fill:#193651;" points="344.201,94.642 297.656,27.927 251.11,94.642 237.922,86.109 297.656,0.776 357.389,86.109 
			"/>
	<polygon style="fill:#193651;" points="318.601,44.218 297.656,13.964 276.71,44.218 	"/>
	<path style="fill:#193651;" d="M333.341,51.976h-71.37l35.685-51.2L333.341,51.976z M291.45,36.461h11.636l-6.206-8.533
		L291.45,36.461z"/>
</g>
<rect x="388.419" y="7.758" style="fill:#E1E6E9;" width="74.473" height="337.455"/>
<g>
	<path style="fill:#193651;" d="M470.65,352.97h-89.988V0h89.988V352.97z M396.177,337.455h58.958V15.515h-58.958V337.455z"/>
	<rect x="388.419" y="43.442" style="fill:#193651;" width="39.564" height="15.515"/>
	<rect x="388.419" y="85.333" style="fill:#193651;" width="27.927" height="15.515"/>
	<rect x="388.419" y="127.224" style="fill:#193651;" width="39.564" height="15.515"/>
	<rect x="388.419" y="169.115" style="fill:#193651;" width="27.927" height="15.515"/>
	<rect x="388.419" y="211.006" style="fill:#193651;" width="39.564" height="15.515"/>
	<rect x="388.419" y="252.897" style="fill:#193651;" width="27.927" height="15.515"/>
	<rect x="388.419" y="294.012" style="fill:#193651;" width="39.564" height="15.515"/>
</g>
<rect x="8.298" y="72.145" style="fill:#FFFFFF;" width="200.921" height="273.067"/>
<path style="fill:#193651;" d="M216.977,352.97H0.541V64.388h216.436V352.97z M16.056,337.455h185.406V79.903H16.056V337.455z"/>
<rect x="39.329" y="103.176" style="fill:#2EA2DB;" width="138.861" height="45.77"/>
<rect x="39.329" y="259.879" style="fill:#E1E6E9;" width="55.079" height="55.079"/>
<rect x="123.886" y="259.879" style="fill:#F16051;" width="55.079" height="55.079"/>
<g>
	<rect x="39.329" y="179.976" style="fill:#E1E6E9;" width="55.079" height="55.079"/>
	<rect x="123.886" y="179.976" style="fill:#E1E6E9;" width="55.079" height="55.079"/>
</g>
<g>
	<polygon style="fill:#193651;" points="81.219,202.473 71.135,202.473 71.135,192.388 61.825,192.388 61.825,202.473 
		51.741,202.473 51.741,211.782 61.825,211.782 61.825,221.867 71.135,221.867 71.135,211.782 81.219,211.782 	"/>
	<rect x="51.741" y="282.376" style="fill:#193651;" width="29.479" height="9.309"/>
	<rect x="136.298" y="291.685" style="fill:#193651;" width="29.479" height="9.309"/>
	<rect x="136.298" y="273.067" style="fill:#193651;" width="29.479" height="9.309"/>
	<polygon style="fill:#193651;" points="164.226,214.109 157.244,207.127 164.226,200.145 158.019,193.164 151.038,200.921 
		144.056,193.164 137.074,200.145 144.056,207.127 137.074,214.109 144.056,221.091 151.038,213.333 158.019,221.091 	"/>
	<rect x="59.498" y="117.915" style="fill:#193651;" width="15.515" height="15.515"/>
	<rect x="101.389" y="117.915" style="fill:#193651;" width="15.515" height="15.515"/>
	<rect x="143.28" y="117.915" style="fill:#193651;" width="15.515" height="15.515"/>
</g>
<g>
</g>
<g>
</g>
<g>
</g>
<g>
</g>
<g>
</g>
<g>
</g>
<g>
</g>
<g>
</g>
<g>
</g>
<g>
</g>
<g>
</g>
<g>
</g>
<g>
</g>
<g>
</g>
<g>
</g>
</svg>
