<?xml version="1.0" encoding="iso-8859-1"?>
<!-- Generator: Adobe Illustrator 19.0.0, SVG Export Plug-In . SVG Version: 6.00 Build 0)  -->
<svg version="1.1" id="Capa_1" xmlns="http://www.w3.org/2000/svg" xmlns:xlink="http://www.w3.org/1999/xlink" x="0px" y="0px"
	 viewBox="0 0 512 512" style="enable-background:new 0 0 512 512;" xml:space="preserve">
<polygon style="fill:#7E3B04;" points="255.559,101.783 440.62,101.783 511.119,31.284 326.059,31.284 "/>
<polygon style="fill:#DB8D07;" points="255.559,101.783 326.059,31.284 255.559,31.284 185.06,101.783 "/>
<polygon style="fill:#7E3B04;" points="255.559,31.284 70.499,31.284 0,101.783 185.06,101.783 "/>
<path style="fill:#DB8D07;" d="M405.37,269.219L299.621,313.28c0,4.406,0,8.812,0.881,13.219c0,0.881,0,2.644,0,3.525
	c0,3.525,0.881,7.05,0.881,10.575c0,0.881,0,1.762,0,2.644c0.881,4.406,1.762,8.812,2.644,12.337c0,0.881,0,1.762,0.881,1.762
	c0.881,3.525,1.762,7.05,3.525,10.575c0,0.881,0.881,1.763,0.881,2.644c2.644,7.931,6.169,15.862,10.575,23.793
	c0,0.881,0.881,0.881,0.881,1.762c1.762,3.525,3.525,7.05,6.169,10.575l0.881,0.881c2.644,3.525,5.287,7.931,7.931,11.456
	c9.694,13.219,22.031,24.675,35.25,35.25l35.25,26.437l35.25-26.437C485.563,420.792,512,368.799,512,313.281L441.501,284.2
	L405.37,269.219z M433.57,415.504l-28.2,21.15l-28.2-21.15c-26.437-20.268-42.299-51.112-42.299-84.599l70.499-26.437l70.499,26.437
	C475.869,364.392,460.007,395.236,433.57,415.504z"/>
<path style="fill:#841F19;" d="M334.871,330.905c0,33.487,15.862,64.33,42.299,84.599l28.2,21.15l28.2-21.15
	c26.437-20.268,42.299-51.112,42.299-84.599l-70.499-26.437L334.871,330.905z"/>
<path style="fill:#7E3B04;" d="M326.059,406.692c-1.762-3.525-4.406-7.05-6.169-10.575c0-0.881-0.881-0.881-0.881-1.762
	c-4.406-7.931-7.05-15.862-10.575-23.793c0-0.881-0.881-1.762-0.881-2.644c-0.881-3.525-1.762-7.05-3.525-10.575
	c0-0.881,0-0.881-0.881-1.762c-0.881-4.406-1.762-7.931-2.644-12.337c0-0.881,0-1.762,0-2.644c-0.881-3.525-0.881-7.05-0.881-10.575
	c0-0.881,0-2.644,0-3.525c0-4.406-0.881-8.812-0.881-13.219l105.749-44.062l35.25,14.981V101.783H255.559v88.124H185.06v-88.124H0
	v317.246h334.871l0,0c-2.644-3.525-5.287-7.05-7.931-11.456C326.94,407.573,326.94,406.692,326.059,406.692z"/>
<rect x="185.06" y="101.783" style="fill:#DB8D07;" width="70.499" height="88.124"/>
<polygon style="fill:#7E3B04;" points="440.62,284.2 511.119,313.28 511.119,31.284 440.62,101.783 "/>
<g style="opacity:0.3;enable-background:new    ;">
	<polygon points="255.559,101.783 440.62,101.783 511.119,31.284 326.059,31.284 	"/>
</g>
<g style="enable-background:new    ;">
	<g style="opacity:0.3;">
		<polygon points="255.559,101.783 326.059,31.284 255.559,31.284 185.06,101.783 		"/>
	</g>
	<g style="opacity:0.3;">
		<polygon points="255.559,31.284 70.499,31.284 0,101.783 185.06,101.783 		"/>
	</g>
	<g style="opacity:0.3;">
		<polygon points="440.62,284.2 511.119,313.28 511.119,31.284 440.62,101.783 		"/>
	</g>
	<g style="opacity:0.3;">
		<path d="M211.497,339.718v-8.812c0-5.287-3.525-8.812-8.812-8.812h-35.25c-5.287,0-8.812,3.525-8.812,8.812v8.812
			c0,11.456,7.05,21.15,17.625,24.675v10.575h-17.625v17.625h52.874v-17.625h-17.625v-10.575
			C204.448,360.867,211.497,351.174,211.497,339.718z M193.873,339.718c0,5.287-3.525,8.812-8.812,8.812
			c-5.287,0-8.812-3.525-8.812-8.812H193.873z"/>
	</g>
	<g style="opacity:0.3;">
		<path d="M102.224,322.974l-17.625,8.812l7.931,15.862l5.287-2.644v47.587h17.625v-47.587l5.287,2.644l7.931-15.862l-17.625-8.812
			C107.511,322.093,103.986,322.093,102.224,322.974z"/>
	</g>
	<g style="opacity:0.3;">
		<path d="M49.349,322.974l-17.625,8.812l7.931,15.862l4.406-2.644v47.587h17.625v-47.587l5.287,2.644l7.931-15.862l-17.625-8.812
			C54.637,322.093,51.112,322.093,49.349,322.974z"/>
	</g>
</g>
<g>
</g>
<g>
</g>
<g>
</g>
<g>
</g>
<g>
</g>
<g>
</g>
<g>
</g>
<g>
</g>
<g>
</g>
<g>
</g>
<g>
</g>
<g>
</g>
<g>
</g>
<g>
</g>
<g>
</g>
</svg>
