<?xml version="1.0" encoding="iso-8859-1"?>
<!-- Generator: Adobe Illustrator 19.0.0, SVG Export Plug-In . SVG Version: 6.00 Build 0)  -->
<svg version="1.1" id="Capa_1" xmlns="http://www.w3.org/2000/svg" xmlns:xlink="http://www.w3.org/1999/xlink" x="0px" y="0px"
	 viewBox="0 0 512.001 512.001" style="enable-background:new 0 0 512.001 512.001;" xml:space="preserve">
<path style="fill:#778CA2;" d="M89.048,211.474h369.712c17.107,0,30.975,13.868,30.975,30.975l0,0v205.174
	c0,17.107-13.868,30.975-30.975,30.975l0,0H89.048l0,0V211.474L89.048,211.474z"/>
<rect x="33.385" y="89.042" style="fill:#58595B;" width="356.166" height="66.781"/>
<rect x="89.036" y="22.26" style="fill:#F5B641;" width="22.26" height="66.781"/>
<rect x="178.078" y="389.557" style="fill:#4BABEF;" width="244.864" height="22.26"/>
<polygon style="fill:#F7F6E7;" points="89.048,443.071 100.178,470.896 111.308,443.071 111.308,111.302 89.048,111.302 "/>
<g>
	<circle style="fill:#4BABEF;" cx="411.812" cy="300.515" r="22.26"/>
	<rect x="189.208" y="289.385" style="fill:#4BABEF;" width="44.521" height="22.26"/>
</g>
<path d="M11.136,66.781v200.343c0,18.443,14.948,33.391,33.391,33.391h11.13v-22.26h-11.13c-6.144,0-11.13-4.986-11.13-11.13V66.781
	c0-6.144,4.986-11.13,11.13-11.13h11.13v-22.26h-11.13C26.084,33.391,11.136,48.338,11.136,66.781z"/>
<path d="M389.563,189.213h22.26V66.781c0-18.443-14.948-33.391-33.391-33.391H189.219v22.26h189.213
	c6.144,0,11.13,4.986,11.13,11.13v22.26H189.219v22.26h200.343v22.26H189.219v22.26h200.343V189.213z"/>
<path d="M467.474,211.474H155.829v22.26h311.645c6.144,0,11.13,4.986,11.13,11.13v200.343c0,6.144-4.986,11.13-11.13,11.13H155.829
	v22.26h311.645c18.443,0,33.391-14.948,33.391-33.391V244.864C500.865,226.422,485.906,211.474,467.474,211.474z"/>
<path d="M456.344,300.515c0-24.587-19.934-44.521-44.521-44.521c-24.587,0-44.521,19.934-44.521,44.521
	c0,24.587,19.934,44.521,44.521,44.521C436.41,345.036,456.344,325.102,456.344,300.515z M389.563,300.515
	c0-12.299,9.962-22.26,22.26-22.26s22.26,9.962,22.26,22.26s-9.962,22.26-22.26,22.26S389.563,312.814,389.563,300.515z"/>
<path d="M155.829,378.427v44.521c0,6.144,4.986,11.13,11.13,11.13h267.125c6.144,0,11.13-4.986,11.13-11.13v-44.521
	c0-6.144-4.986-11.13-11.13-11.13H166.959C160.804,367.296,155.829,372.283,155.829,378.427z M178.089,389.557h244.864v22.26
	H178.089V389.557z"/>
<path d="M244.87,333.906c6.144,0,11.13-4.986,11.13-11.13v-44.521c0-6.144-4.986-11.13-11.13-11.13h-66.781
	c-6.144,0-11.13,4.986-11.13,11.13v44.521c0,6.144,4.986,11.13,11.13,11.13H244.87z M189.219,289.385h44.521v22.26h-44.521V289.385z
	"/>
<path d="M166.959,166.953V55.651c0-6.144-4.986-11.13-11.13-11.13h-22.26V22.26c0-12.299-9.962-22.26-22.26-22.26h-22.26
	c-12.299,0-22.26,9.962-22.26,22.26v422.947c0,1.414,0.267,2.816,0.79,4.129l22.26,55.651c2.271,5.71,8.748,8.492,14.458,6.222
	c2.838-1.135,5.086-3.384,6.222-6.222l22.26-55.651c0.523-1.313,0.79-2.716,0.79-4.129V66.781h11.13v100.172H166.959z
	 M111.308,22.26v66.781h-22.26V22.26H111.308z M100.178,470.896l-11.13-27.825V111.302h22.26v331.769L100.178,470.896z"/>
<g>
</g>
<g>
</g>
<g>
</g>
<g>
</g>
<g>
</g>
<g>
</g>
<g>
</g>
<g>
</g>
<g>
</g>
<g>
</g>
<g>
</g>
<g>
</g>
<g>
</g>
<g>
</g>
<g>
</g>
</svg>
