<?xml version="1.0" encoding="iso-8859-1"?>
<!-- Generator: Adobe Illustrator 19.0.0, SVG Export Plug-In . SVG Version: 6.00 Build 0)  -->
<svg version="1.1" id="Capa_1" xmlns="http://www.w3.org/2000/svg" xmlns:xlink="http://www.w3.org/1999/xlink" x="0px" y="0px"
	 viewBox="0 0 511.999 511.999" style="enable-background:new 0 0 511.999 511.999;" xml:space="preserve">
<path style="fill:#D5D9DE;" d="M505.312,34.939c-1.371-1.627-3.334-2.643-5.455-2.824L132.012,0.698
	c-4.414-0.402-8.302,2.896-8.68,7.313L85.085,455.822c-0.181,2.121,0.488,4.227,1.86,5.855c1.371,1.627,3.334,2.643,5.454,2.824
	l367.845,31.417c0.232,0.021,0.464,0.029,0.691,0.029c4.123,0,7.629-3.158,7.988-7.343l38.248-447.811
	C507.352,38.673,506.684,36.568,505.312,34.939z"/>
<path style="fill:#EAECEE;" d="M443.151,452.957L387.089,7.026c-0.554-4.397-4.554-7.519-8.965-6.961L11.823,46.115
	c-2.112,0.266-4.032,1.358-5.337,3.04c-1.305,1.681-1.89,3.812-1.624,5.924L60.925,501.01c0.51,4.058,3.967,7.026,7.954,7.026
	c0.333,0,0.671-0.021,1.011-0.063l366.301-46.051c2.111-0.266,4.032-1.358,5.337-3.04
	C442.833,457.201,443.416,455.069,443.151,452.957z"/>
<path style="fill:#F4F6F7;" d="M438.189,46.506H69.005c-4.432,0-8.026,3.594-8.026,8.026v449.441c0,4.432,3.594,8.026,8.026,8.026
	h369.184c4.432,0,8.026-3.594,8.026-8.026V54.532C446.214,50.1,442.621,46.506,438.189,46.506z"/>
<path style="fill:#55697A;" d="M341.88,231.098h-96.309V134.79c0-4.432-3.594-8.026-8.026-8.026
	c-61.956,0-112.36,50.405-112.36,112.36s50.405,112.36,112.36,112.36s112.36-50.405,112.36-112.36
	C349.906,234.692,346.312,231.098,341.88,231.098z"/>
<path style="fill:#FD8E61;" d="M269.648,94.661c-4.432,0-8.026,3.594-8.026,8.026v104.335c0,4.432,3.594,8.026,8.026,8.026h104.335
	c4.432,0,8.026-3.594,8.026-8.026C382.008,145.066,331.604,94.661,269.648,94.661z"/>
<path style="fill:#6B7B8B;" d="M325.82,150.842c-1.529,0-3.075-0.437-4.444-1.349c-3.689-2.458-4.685-7.442-2.226-11.13
	l32.103-48.154c1.488-2.233,3.994-3.574,6.677-3.574h40.129c4.432,0,8.026,3.594,8.026,8.026s-3.594,8.026-8.026,8.026h-35.834
	l-29.72,44.58C330.96,149.587,328.415,150.842,325.82,150.842z"/>
<path style="fill:#95A1AC;" d="M398.06,351.485h-72.232c-2.768,0-5.339-1.426-6.806-3.772l-40.129-64.206
	c-2.35-3.759-1.206-8.711,2.552-11.059c3.76-2.35,8.712-1.204,11.059,2.552l37.77,60.434h67.783c4.432,0,8.026,3.594,8.026,8.026
	S402.492,351.485,398.06,351.485z"/>
<g>
	<path style="fill:#D5D9DE;" d="M173.339,391.613h-64.206c-4.432,0-8.026-3.594-8.026-8.026s3.594-8.026,8.026-8.026h64.206
		c4.432,0,8.026,3.594,8.026,8.026S177.772,391.613,173.339,391.613z"/>
	<path style="fill:#D5D9DE;" d="M269.648,391.613h-64.206c-4.432,0-8.026-3.594-8.026-8.026s3.594-8.026,8.026-8.026h64.206
		c4.432,0,8.026,3.594,8.026,8.026S274.08,391.613,269.648,391.613z"/>
	<path style="fill:#D5D9DE;" d="M213.468,431.742H109.133c-4.432,0-8.026-3.594-8.026-8.026s3.594-8.026,8.026-8.026h104.335
		c4.432,0,8.026,3.594,8.026,8.026S217.901,431.742,213.468,431.742z"/>
	<path style="fill:#D5D9DE;" d="M269.648,431.742h-24.077c-4.432,0-8.026-3.594-8.026-8.026s3.594-8.026,8.026-8.026h24.077
		c4.432,0,8.026,3.594,8.026,8.026S274.08,431.742,269.648,431.742z"/>
	<path style="fill:#D5D9DE;" d="M141.236,471.871h-32.103c-4.432,0-8.026-3.594-8.026-8.026s3.594-8.026,8.026-8.026h32.103
		c4.432,0,8.026,3.594,8.026,8.026S145.67,471.871,141.236,471.871z"/>
	<path style="fill:#D5D9DE;" d="M269.648,471.871h-96.309c-4.432,0-8.026-3.594-8.026-8.026s3.594-8.026,8.026-8.026h96.309
		c4.432,0,8.026,3.594,8.026,8.026S274.08,471.871,269.648,471.871z"/>
</g>
<g>
</g>
<g>
</g>
<g>
</g>
<g>
</g>
<g>
</g>
<g>
</g>
<g>
</g>
<g>
</g>
<g>
</g>
<g>
</g>
<g>
</g>
<g>
</g>
<g>
</g>
<g>
</g>
<g>
</g>
</svg>
