<?xml version="1.0" encoding="iso-8859-1"?>
<!-- Generator: Adobe Illustrator 19.0.0, SVG Export Plug-In . SVG Version: 6.00 Build 0)  -->
<svg version="1.1" id="Capa_1" xmlns="http://www.w3.org/2000/svg" xmlns:xlink="http://www.w3.org/1999/xlink" x="0px" y="0px"
	 viewBox="0 0 401.82 401.82" style="enable-background:new 0 0 401.82 401.82;" xml:space="preserve">
<g>
	<g>
		<path style="fill:#00ACEA;" d="M242.4,200.47c-22.54-23.029-35.168-53.967-35.18-86.19V47.31L293.55,0l88.78,47.31v65.74
			c-0.006,46.709-26.417,89.401-68.21,110.26c-2.4,1.21-4.86,2.34-7.36,3.4l-13.52,5.84l-11.98-5.22
			C266.7,220.959,253.505,211.839,242.4,200.47z"/>
		<g>
			<path style="fill:#D4E1F4;" d="M341.82,334.55v44.47c0,12.592-10.208,22.8-22.8,22.8c-0.003,0-0.007,0-0.01,0h-19
				c-12.592,0.006-22.804-10.198-22.81-22.79c0-0.003,0-0.007,0-0.01v-21.67h41.81c12.592,0.006,22.804-10.198,22.81-22.79
				C341.82,334.557,341.82,334.553,341.82,334.55z"/>
			<path style="fill:#D4E1F4;" d="M314.16,223.39l8.27,19.27H200.22c0.081-23.264,18.917-42.104,42.18-42.19
				c11.105,11.369,24.3,20.489,38.86,26.86l11.98,5.22l13.52-5.84c2.5-1.06,4.96-2.19,7.36-3.4L314.16,223.39z"/>
			<path style="fill:#D4E1F4;" d="M219.85,168.59c5.777,11.756,13.389,22.517,22.55,31.88c-23.263,0.086-42.099,18.926-42.18,42.19
				H43.44l25.48-59.35c3.68-8.572,12.111-14.129,21.44-14.13h128.31L219.85,168.59z"/>
			<path style="fill:#D4E1F4;" d="M84.11,357.73v21.29c0,12.592-10.208,22.8-22.8,22.8c-0.003,0-0.007,0-0.01,0h-19
				c-12.592,0.006-22.804-10.198-22.81-22.79c0-0.003,0-0.007,0-0.01v-44.47c0,12.592,10.208,22.8,22.8,22.8c0.003,0,0.007,0,0.01,0
				h41.81V357.73z"/>
		</g>
	</g>
	<g>
		<path style="fill:#00ACEA;" d="M210.22,242.66h-20c0.037-28.802,23.373-52.144,52.175-52.19l0.015,20
			C224.642,210.495,210.245,224.892,210.22,242.66z"/>
		<path style="fill:#D4E1F4;" d="M343.087,91.069c-3.485-4.284-9.784-4.931-14.068-1.446l-46.809,38.078l-17-19.915
			c-3.587-4.2-9.899-4.697-14.099-1.11c-4.2,3.587-4.697,9.899-1.11,14.098l0,0l23.35,27.34c0.11,0.129,0.232,0.242,0.348,0.365
			s0.234,0.256,0.358,0.374c0.148,0.142,0.305,0.27,0.461,0.4c0.129,0.11,0.255,0.225,0.39,0.327c0.163,0.125,0.335,0.235,0.5,0.348
			c0.136,0.09,0.268,0.187,0.406,0.27c0.182,0.109,0.37,0.2,0.557,0.3c0.136,0.07,0.268,0.147,0.406,0.211
			c0.2,0.091,0.406,0.166,0.612,0.244c0.131,0.05,0.26,0.108,0.394,0.153c0.22,0.073,0.443,0.128,0.667,0.185
			c0.124,0.032,0.246,0.073,0.371,0.1c0.249,0.054,0.5,0.089,0.753,0.124c0.1,0.014,0.205,0.038,0.309,0.049
			c0.356,0.038,0.714,0.058,1.072,0.058l0,0c0.282,0,0.565-0.012,0.847-0.036c0.086-0.008,0.172-0.023,0.259-0.033
			c0.195-0.022,0.39-0.042,0.583-0.076c0.114-0.019,0.225-0.048,0.337-0.071c0.165-0.034,0.331-0.066,0.5-0.108
			c0.126-0.033,0.25-0.076,0.376-0.114c0.148-0.044,0.3-0.086,0.442-0.138s0.263-0.1,0.395-0.157s0.271-0.106,0.405-0.167
			s0.268-0.133,0.4-0.2s0.25-0.125,0.373-0.195s0.265-0.161,0.395-0.243s0.24-0.148,0.357-0.229s0.248-0.183,0.371-0.276
			c0.089-0.067,0.18-0.128,0.267-0.2l54.379-44.24c4.285-3.485,4.933-9.783,1.448-14.068
			C343.088,91.07,343.088,91.07,343.087,91.069z"/>
	</g>
</g>
<g>
	<path style="fill:#00EFD1;" d="M341.82,330.84v5.71c0,12.592-10.208,22.8-22.8,22.8c-0.003,0-0.007,0-0.01,0H42.3
		c-12.592,0.006-22.804-10.198-22.81-22.79c0-0.003,0-0.007,0-0.01v-56.77c0.003-10.045,4.42-19.582,12.08-26.08l11.87-11.04h278.99
		v0.38l8.67,9.26c6.842,6.463,10.719,15.458,10.72,24.87V330.84z"/>
</g>
<g>
	<path style="fill:#00ACEA;" d="M215.43,331.47h-69.56c-5.523,0-10-4.477-10-10s4.477-10,10-10h69.56c5.523,0,10,4.477,10,10
		S220.953,331.47,215.43,331.47L215.43,331.47z"/>
</g>
<g>
	<path style="fill:#00ACEA;" d="M215.43,303.59h-69.56c-5.523,0-10-4.477-10-10s4.477-10,10-10h69.56c5.523,0,10,4.477,10,10
		S220.953,303.59,215.43,303.59L215.43,303.59z"/>
</g>
<g>
	<rect x="254.02" y="285.99" style="fill:#D4E1F4;" width="54.35" height="37.25"/>
</g>
<g>
	<rect x="52.94" y="285.99" style="fill:#D4E1F4;" width="54.35" height="37.25"/>
</g>
<g>
</g>
<g>
</g>
<g>
</g>
<g>
</g>
<g>
</g>
<g>
</g>
<g>
</g>
<g>
</g>
<g>
</g>
<g>
</g>
<g>
</g>
<g>
</g>
<g>
</g>
<g>
</g>
<g>
</g>
</svg>
