<?xml version="1.0" encoding="iso-8859-1"?>
<!-- Generator: Adobe Illustrator 19.0.0, SVG Export Plug-In . SVG Version: 6.00 Build 0)  -->
<svg version="1.1" id="Capa_1" xmlns="http://www.w3.org/2000/svg" xmlns:xlink="http://www.w3.org/1999/xlink" x="0px" y="0px"
	 viewBox="0 0 432.514 432.514" style="enable-background:new 0 0 432.514 432.514;" xml:space="preserve">
<g>
	<g>
		<path style="fill:#00CEB4;" d="M391.277,31.347V360.49c0.259,2.874-1.86,5.414-4.734,5.673c-1.535,0.138-3.053-0.408-4.148-1.493
			l-34.482-32.392c-2.185-1.57-5.129-1.57-7.314,0l-12.016,10.971V92.473c0-17.312-14.035-31.347-31.347-31.347H103.93v-29.78
			C103.93,14.035,117.965,0,135.277,0H359.93C377.243,0,391.277,14.035,391.277,31.347z"/>
		<path style="fill:#D4E1F4;" d="M328.583,343.249v78.89c0.259,2.874-1.86,5.414-4.734,5.673c-1.535,0.138-3.053-0.408-4.148-1.493
			l-34.482-32.392c-2.185-1.57-5.129-1.57-7.314,0l-41.273,37.094c-2.032,1.991-5.283,1.991-7.314,0l-40.751-37.094
			c-2.185-1.57-5.129-1.57-7.314,0l-40.751,37.094c-2.032,1.991-5.283,1.991-7.314,0l-41.273-37.094c-2.185-1.57-5.129-1.57-7.314,0
			l-34.482,32.392c-2.049,2.031-5.357,2.017-7.388-0.032c-1.085-1.095-1.632-2.613-1.493-4.148V92.473
			c0-17.312,14.035-31.347,31.347-31.347h224.653c17.312,0,31.347,14.034,31.347,31.347V343.249z"/>
	</g>
	<g>
		<path style="fill:#00ACEA;" d="M187,167.184h-66.873c-5.771,0-10.449-4.678-10.449-10.449s4.678-10.449,10.449-10.449H187
			c5.771,0,10.449,4.678,10.449,10.449S192.77,167.184,187,167.184z"/>
		<path style="fill:#00ACEA;" d="M249.694,235.102H120.126c-5.771,0-10.449-4.678-10.449-10.449s4.678-10.449,10.449-10.449h129.567
			c5.771,0,10.449,4.678,10.449,10.449S255.464,235.102,249.694,235.102z"/>
		<path style="fill:#00ACEA;" d="M249.694,303.02H120.126c-5.771,0-10.449-4.678-10.449-10.449s4.678-10.449,10.449-10.449h129.567
			c5.771,0,10.449,4.678,10.449,10.449S255.464,303.02,249.694,303.02z"/>
	</g>
</g>
<g>
</g>
<g>
</g>
<g>
</g>
<g>
</g>
<g>
</g>
<g>
</g>
<g>
</g>
<g>
</g>
<g>
</g>
<g>
</g>
<g>
</g>
<g>
</g>
<g>
</g>
<g>
</g>
<g>
</g>
</svg>
