<?xml version="1.0" encoding="iso-8859-1"?>
<!-- Generator: Adobe Illustrator 19.0.0, SVG Export Plug-In . SVG Version: 6.00 Build 0)  -->
<svg version="1.1" id="Capa_1" xmlns="http://www.w3.org/2000/svg" xmlns:xlink="http://www.w3.org/1999/xlink" x="0px" y="0px"
	 viewBox="0 0 472 472" style="enable-background:new 0 0 472 472;" xml:space="preserve">
<g>
	<path style="fill:#2273AF;" d="M468,160c0-13.488-17.76-25-42.848-29.712C450.784,123.296,468,110.576,468,96
		c0-14.4-16.8-27-41.952-34.04c1.263-3.17,1.925-6.548,1.952-9.96c0-28.72-46.56-52-104-52S220,23.28,220,52
		c0,23.312,30.696,43.048,72.976,49.648c5.032,16.136,31.2,29.152,65.4,33.088c-16,5.848-26.4,14.976-26.4,25.264
		c0,12.232,14.592,22.848,36,28.232C361.02,192.495,356.558,199.861,356,208c0,10.544,8.968,19.872,22.744,25.704
		C370.3,238.082,364.722,246.516,364,256c0,17.672,23.28,32,52,32c28.72,0,52-14.328,52-32
		c-1.085-10.908-8.155-20.304-18.336-24.368C460.904,225.784,468,217.376,468,208c0-10.088-8.184-19.072-20.944-24.936
		C459.944,177.24,468,169.072,468,160z"/>
	<ellipse style="fill:#2273AF;" cx="404" cy="384" rx="32" ry="16"/>
	<ellipse style="fill:#2273AF;" cx="412" cy="348" rx="40" ry="20"/>
	<ellipse style="fill:#2273AF;" cx="420" cy="308" rx="40" ry="20"/>
</g>
<ellipse style="fill:#88D0EF;" cx="324" cy="48" rx="72" ry="24"/>
<path style="fill:#A9BFD1;" d="M244,280h-64c-4.418-0.001-7.999-3.583-7.998-8.002c0-2.121,0.843-4.154,2.342-5.654l32-32
	c3.178-3.069,8.243-2.982,11.312,0.196c2.994,3.1,2.994,8.015,0,11.116L199.312,264H244c4.418,0,8,3.582,8,8S248.418,280,244,280z"
	/>
<path style="fill:#FFD884;" d="M172,464V352h80v112"/>
<g>
	<path style="fill:#A9BFD1;" d="M340,312c-2.122,0-4.156-0.844-5.656-2.344L212,187.312L89.656,309.656
		c-3.178,3.07-8.242,2.982-11.312-0.196c-2.995-3.1-2.995-8.016,0-11.116l128-128c3.124-3.123,8.188-3.123,11.312,0l128,128
		c3.124,3.125,3.123,8.19-0.002,11.314C344.155,311.157,342.121,312,340,312z"/>
	<path style="fill:#A9BFD1;" d="M298.68,472H125.32c-7.117-0.087-13.834-3.306-18.36-8.8c-4.572-5.535-7.037-12.509-6.96-19.688V320
		c0-4.418,3.582-8,8-8c4.418,0,8,3.582,8,8v123.512c-0.05,3.384,1.081,6.68,3.2,9.32c1.466,1.928,3.716,3.101,6.136,3.2h173.36
		c2.42-0.099,4.67-1.272,6.136-3.2c2.119-2.64,3.25-5.936,3.2-9.32V326c0-4.418,3.582-8,8-8s8,3.582,8,8v117.512
		c0.068,7.169-2.4,14.131-6.968,19.656C312.542,468.684,305.812,471.917,298.68,472L298.68,472z"/>
	<path style="fill:#A9BFD1;" d="M308,240c-4.418,0-8-3.582-8-8v-51.632c0.172-2.165-1.383-4.085-3.536-4.368h-8.928
		c-2.153,0.283-3.708,2.203-3.536,4.368V200c0,4.418-3.582,8-8,8s-8-3.582-8-8v-19.632c-0.206-11.01,8.527-20.114,19.536-20.368
		h8.928c11.009,0.254,19.742,9.358,19.536,20.368V232C316,236.418,312.418,240,308,240z"/>
</g>
<g>
	<path style="fill:#88D0EF;" d="M28,128c-8.837,0-16-7.163-16-16s7.163-16,16-16s16,7.163,16,16S36.837,128,28,128z"/>
	<path style="fill:#88D0EF;" d="M20,200c-8.837,0-16-7.163-16-16s7.163-16,16-16s16,7.163,16,16S28.837,200,20,200z"/>
	<path style="fill:#88D0EF;" d="M96,112c-6.627,0-12-5.373-12-12s5.373-12,12-12c6.627,0,12,5.373,12,12S102.627,112,96,112L96,112z
		"/>
	<path style="fill:#88D0EF;" d="M116,168c-8.837,0-16-7.163-16-16s7.163-16,16-16s16,7.163,16,16S124.837,168,116,168z"/>
	<path style="fill:#88D0EF;" d="M68,248c-8.837,0-16-7.163-16-16c0-8.837,7.163-16,16-16s16,7.163,16,16
		C84,240.837,76.837,248,68,248z"/>
	<path style="fill:#88D0EF;" d="M128,216c-6.627,0-12-5.373-12-12s5.373-12,12-12s12,5.373,12,12S134.627,216,128,216L128,216z"/>
	<path style="fill:#88D0EF;" d="M156,144c-8.837,0-16-7.163-16-16s7.163-16,16-16s16,7.163,16,16S164.837,144,156,144z"/>
</g>
<ellipse style="fill:#2273AF;" cx="376" cy="432" rx="20" ry="8"/>
<g>
</g>
<g>
</g>
<g>
</g>
<g>
</g>
<g>
</g>
<g>
</g>
<g>
</g>
<g>
</g>
<g>
</g>
<g>
</g>
<g>
</g>
<g>
</g>
<g>
</g>
<g>
</g>
<g>
</g>
</svg>
