<?xml version="1.0" encoding="iso-8859-1"?>
<!-- Generator: Adobe Illustrator 19.0.0, SVG Export Plug-In . SVG Version: 6.00 Build 0)  -->
<svg version="1.1" id="Capa_1" xmlns="http://www.w3.org/2000/svg" xmlns:xlink="http://www.w3.org/1999/xlink" x="0px" y="0px"
	 viewBox="0 0 472 472" style="enable-background:new 0 0 472 472;" xml:space="preserve">
<path style="fill:#7D8F9F;" d="M332,224c-4.418,0-8-3.582-8-8v-96c0-4.418,3.582-8,8-8s8,3.582,8,8v96
	C340,220.418,336.418,224,332,224z"/>
<g>
	<path style="fill:#88D0EF;" d="M364,0H4v392h264V120h-80V72h80h48h32v48h-4l28,48l-72,72l56,56l112-112L364,0z"/>
	<path style="fill:#88D0EF;" d="M316,72l56,96l-72,72l56,56l112-112L364,0H4v392h264V72H316z"/>
</g>
<path style="fill:#9A615B;" d="M4,360h264v32H4V360z"/>
<circle style="fill:#FFD884;" cx="124" cy="376" r="40"/>
<path style="fill:#5F7ABC;" d="M124,40l16-40H76l16,40L68,232l40,48l40-48L124,40z"/>
<path style="fill:#7D8F9F;" d="M268,472c-4.418,0-8-3.582-8-8v-24c0-4.418,3.582-8,8-8s8,3.582,8,8v24
	C276,468.418,272.418,472,268,472z"/>
<path style="fill:#1D5C88;" d="M212,280h112v32H212V280z"/>
<path style="fill:#7D8F9F;" d="M268,453.6l-6.472-8.896C218.808,386.216,195.853,315.628,196,243.2V112c0-4.418,3.582-8,8-8
	s8,3.582,8,8v131.2c-0.136,65.205,19.379,128.938,56,182.888c25.121-37.293,42.328-79.34,50.56-123.544
	c0.804-4.345,4.979-7.216,9.324-6.412c4.345,0.804,7.216,4.979,6.412,9.324c-9.363,50.28-29.798,97.845-59.824,139.248L268,453.6z"
	/>
<path style="fill:#1D5C88;" d="M316,72h-48h-80v48h80h76L316,72z"/>
<path style="fill:#F8C09C;" d="M356,288l-33.768,33.768c-3.987,3.988-9.393,6.229-15.032,6.232h-35.808
	c-7.117-0.002-13.763-3.559-17.712-9.48c-5.629-8.445-4.514-19.689,2.664-26.864L308,240L356,288z"/>
<path style="fill:#2BB3CE;" d="M299.991,240.01l32.001-32.001l55.997,55.997l-32.001,32.001L299.991,240.01z"/>
<g>
</g>
<g>
</g>
<g>
</g>
<g>
</g>
<g>
</g>
<g>
</g>
<g>
</g>
<g>
</g>
<g>
</g>
<g>
</g>
<g>
</g>
<g>
</g>
<g>
</g>
<g>
</g>
<g>
</g>
</svg>
