<?xml version="1.0" encoding="iso-8859-1"?>
<!-- Generator: Adobe Illustrator 19.0.0, SVG Export Plug-In . SVG Version: 6.00 Build 0)  -->
<svg version="1.1" id="Capa_1" xmlns="http://www.w3.org/2000/svg" xmlns:xlink="http://www.w3.org/1999/xlink" x="0px" y="0px"
	 viewBox="0 0 512.016 512.016" style="enable-background:new 0 0 512.016 512.016;" xml:space="preserve">
<path style="fill:#CFD8DC;" d="M266.684,437.338v-128c0.004-14.687,10.005-27.486,24.256-31.04l85.333-21.333
	c5.123-1.311,10.493-1.311,15.616,0l2.795,0.704V10.671c0-5.891-4.776-10.667-10.667-10.667c0,0,0,0,0,0H170.684
	c-5.891,0-10.667,4.776-10.667,10.667v117.333H42.684c-5.891,0-10.667,4.776-10.667,10.667v320c0,5.891,4.776,10.667,10.667,10.667
	H278.46C271.186,460.221,267.055,448.996,266.684,437.338z"/>
<path style="fill:#B0BEC5;" d="M174.759,0.815c-3.985-1.654-8.574-0.745-11.627,2.304l-128,128
	c-4.171,4.16-4.179,10.914-0.019,15.085c2.006,2.011,4.731,3.139,7.571,3.134h128c5.891,0,10.667-4.776,10.667-10.667v-128
	C181.35,6.355,178.748,2.464,174.759,0.815z"/>
<path style="fill:#2196F3;" d="M471.932,298.991l-85.333-21.333c-1.696-0.416-3.467-0.416-5.163,0l-85.333,21.333
	c-4.75,1.185-8.084,5.451-8.085,10.347v128c0,32.981,70.4,64.853,91.904,73.856c2.628,1.096,5.585,1.096,8.213,0
	c21.483-9.003,91.883-40.875,91.883-73.856v-128C480.016,304.442,476.683,300.176,471.932,298.991z"/>
<g>
	<polygon style="fill:#FAFAFA;" points="384.018,321.306 330.684,331.973 330.684,394.671 384.018,394.671 	"/>
	<polygon style="fill:#FAFAFA;" points="384.018,394.671 384.018,465.157 437.351,439.151 437.351,394.671 	"/>
</g>
<g>
</g>
<g>
</g>
<g>
</g>
<g>
</g>
<g>
</g>
<g>
</g>
<g>
</g>
<g>
</g>
<g>
</g>
<g>
</g>
<g>
</g>
<g>
</g>
<g>
</g>
<g>
</g>
<g>
</g>
</svg>
