<?xml version="1.0" encoding="iso-8859-1"?>
<!-- Generator: Adobe Illustrator 19.0.0, SVG Export Plug-In . SVG Version: 6.00 Build 0)  -->
<svg version="1.1" id="Capa_1" xmlns="http://www.w3.org/2000/svg" xmlns:xlink="http://www.w3.org/1999/xlink" x="0px" y="0px"
	 viewBox="0 0 512 512" style="enable-background:new 0 0 512 512;" xml:space="preserve">
<g>
	<path style="fill:#95A5A5;" d="M88.276,114.759V17.655C88.304,7.916,96.192,0.029,105.931,0h238.345l114.759,114.759v228.105
		L423.724,512H105.931c-9.739-0.029-17.627-7.916-17.655-17.655V114.759z"/>
	<path style="fill:#3D324C;" d="M17.655,150.069h150.069c9.751,0,17.655,7.904,17.655,17.655v211.862
		c0,9.751-7.904,17.655-17.655,17.655H17.655C7.904,397.241,0,389.337,0,379.586V167.724C0,157.973,7.904,150.069,17.655,150.069z"
		/>
	<path style="fill:#7F8C8D;" d="M344.276,0v97.103c0,9.751,7.905,17.655,17.655,17.655h97.103L344.276,0z"/>
	<g>
		<path style="fill:#CC66A1;" d="M114.759,256h26.483c4.875,0,8.828,3.952,8.828,8.828v17.655c0,4.875-3.952,8.828-8.828,8.828
			h-26.483c-4.875,0-8.828-3.952-8.828-8.828v-17.655C105.931,259.952,109.883,256,114.759,256z"/>
		<path style="fill:#CC66A1;" d="M114.759,326.621h26.483c4.875,0,8.828,3.952,8.828,8.828v17.655c0,4.875-3.952,8.828-8.828,8.828
			h-26.483c-4.875,0-8.828-3.952-8.828-8.828v-17.655C105.931,330.573,109.883,326.621,114.759,326.621z"/>
		<path style="fill:#CC66A1;" d="M52.966,300.138c-4.875,0-8.828-3.952-8.828-8.828V256c0-4.875,3.952-8.828,8.828-8.828
			s8.828,3.952,8.828,8.828v35.31C61.793,296.186,57.841,300.138,52.966,300.138z"/>
		<path style="fill:#CC66A1;" d="M70.621,282.483H35.31c-4.875,0-8.828-3.952-8.828-8.828s3.952-8.828,8.828-8.828h35.31
			c4.875,0,8.828,3.952,8.828,8.828S75.496,282.483,70.621,282.483z"/>
		<path style="fill:#CC66A1;" d="M70.621,353.103H35.31c-4.875,0-8.828-3.952-8.828-8.828s3.952-8.828,8.828-8.828h35.31
			c4.875,0,8.828,3.952,8.828,8.828S75.496,353.103,70.621,353.103z"/>
	</g>
	<g>
		<path style="fill:#FFFFFF;" d="M423.724,176.552H220.69c-4.875,0-8.828-3.952-8.828-8.828s3.952-8.828,8.828-8.828h203.034
			c4.875,0,8.828,3.952,8.828,8.828S428.599,176.552,423.724,176.552z"/>
		<path style="fill:#FFFFFF;" d="M423.724,229.517H220.69c-4.875,0-8.828-3.952-8.828-8.828s3.952-8.828,8.828-8.828h203.034
			c4.875,0,8.828,3.952,8.828,8.828S428.599,229.517,423.724,229.517z"/>
		<path style="fill:#FFFFFF;" d="M423.724,282.483H220.69c-4.875,0-8.828-3.952-8.828-8.828s3.952-8.828,8.828-8.828h203.034
			c4.875,0,8.828,3.952,8.828,8.828S428.599,282.483,423.724,282.483z"/>
		<path style="fill:#FFFFFF;" d="M344.276,335.448H220.69c-4.875,0-8.828-3.952-8.828-8.828s3.952-8.828,8.828-8.828h123.586
			c4.875,0,8.828,3.952,8.828,8.828S349.151,335.448,344.276,335.448z"/>
	</g>
	<path style="fill:#65DDB9;" d="M44.138,185.379h97.103c4.875,0,8.828,3.952,8.828,8.828v17.655c0,4.875-3.952,8.828-8.828,8.828
		H44.138c-4.875,0-8.828-3.952-8.828-8.828v-17.655C35.31,189.332,39.263,185.379,44.138,185.379z"/>
	<circle style="fill:#F0C419;" cx="423.724" cy="423.724" r="88.276"/>
	<g>
		<path style="fill:#B19046;" d="M419.22,474.043c-5.778-0.029-11.482-1.298-16.728-3.72c-8.02-3.544-14.604-9.7-18.677-17.466
			c-4.045-7.588-4.409-16.607-0.987-24.496c2.023-4.435,7.259-6.39,11.694-4.366c4.435,2.023,6.39,7.259,4.366,11.694
			c-1.155,3.016-0.904,6.391,0.685,9.203c4.811,8.456,14.499,12.877,24.039,10.97c3.248-0.45,6.04-2.53,7.401-5.513
			c1.361-2.983,1.103-6.454-0.685-9.203c-2.282-4.173-5.886-7.469-10.246-9.371c-8.02-3.547-14.603-9.704-18.677-17.47
			c-4.206-7.543-4.572-16.637-0.986-24.494c3.586-7.857,10.696-13.539,19.15-15.304c17.55-3.918,35.565,4.302,44.108,20.125
			c4.046,7.588,4.409,16.607,0.987,24.496c-1.306,2.874-4.047,4.831-7.189,5.134c-3.142,0.303-6.207-1.095-8.037-3.667
			s-2.149-5.925-0.834-8.795c1.155-3.016,0.904-6.391-0.685-9.203c-4.811-8.456-14.499-12.877-24.039-10.97
			c-3.248,0.45-6.04,2.53-7.401,5.513c-1.361,2.983-1.103,6.455,0.685,9.203c2.282,4.173,5.886,7.469,10.246,9.371
			c8.02,3.547,14.603,9.704,18.677,17.47c4.206,7.543,4.572,16.637,0.986,24.494s-10.696,13.539-19.15,15.304
			C425.076,473.694,422.153,474.05,419.22,474.043z"/>
		<path style="fill:#B19046;" d="M401.754,480.763c-3.002-0.006-5.795-1.536-7.417-4.061c-1.622-2.526-1.851-5.702-0.609-8.434
			l43.974-96.371c2.023-4.435,7.259-6.39,11.694-4.366c4.435,2.023,6.39,7.259,4.366,11.694l-43.974,96.371
			C408.355,478.743,405.214,480.763,401.754,480.763z"/>
	</g>
</g>
<g>
</g>
<g>
</g>
<g>
</g>
<g>
</g>
<g>
</g>
<g>
</g>
<g>
</g>
<g>
</g>
<g>
</g>
<g>
</g>
<g>
</g>
<g>
</g>
<g>
</g>
<g>
</g>
<g>
</g>
</svg>
