<?xml version="1.0" encoding="iso-8859-1"?>
<!-- Generator: Adobe Illustrator 19.0.0, SVG Export Plug-In . SVG Version: 6.00 Build 0)  -->
<svg version="1.1" id="Capa_1" xmlns="http://www.w3.org/2000/svg" xmlns:xlink="http://www.w3.org/1999/xlink" x="0px" y="0px"
	 viewBox="0 0 480 480" style="enable-background:new 0 0 480 480;" xml:space="preserve">
<polyline style="fill:#ADA08F;" points="32,415.457 32,247.457 224,247.457 224,415.457 "/>
<polyline style="fill:#867668;" points="64,407.457 64,311.457 128,311.457 128,407.457 "/>
<path style="fill:#79A5B5;" d="M0,407.457v72h480v-88h-9.6c-4,0-8,1.6-11.2,4.8l-6.4,6.4c-3.2,3.2-7.2,4.8-11.2,4.8h-2.4
	c-4,0-8-1.6-11.2-4.8l-6.4-6.4c-3.2-3.2-7.2-4.8-11.2-4.8H408c-4,0-8,1.6-11.2,4.8l-6.4,6.4c-3.2,3.2-7.2,4.8-11.2,4.8h-2.4
	c-4,0-8-1.6-11.2-4.8l-6.4-6.4c-3.2-3.2-7.2-4.8-11.2-4.8h-2.4c-4,0-8,1.6-11.2,4.8l-6.4,6.4c-3.2,3.2-7.2,4.8-11.2,4.8h-2.4
	c-4,0-8-1.6-11.2-4.8l-6.4-6.4c-3.2-3.2-7.2-4.8-11.2-4.8h-2.4c-4,0-8,1.6-11.2,4.8l-6.4,6.4c-3.2,3.2-7.2,4.8-11.2,4.8H252
	c-4,0-8-1.6-11.2-4.8l-6.4-6.4c-3.2-3.2-7.2-4.8-11.2-4.8h-2.4c-4,0-8,1.6-11.2,4.8l-6.4,6.4c-3.2,3.2-7.2,4.8-11.2,4.8h-2.4
	c-4,0-8-1.6-11.2-4.8l-6.4-6.4c-3.2-3.2-7.2-4.8-11.2-4.8h-2.4c-4,0-8,1.6-11.2,4.8l-6.4,6.4c-3.2,3.2-7.2,4.8-11.2,4.8h-2.4
	c-4,0-8-1.6-11.2-4.8l-6.4-6.4c-3.2-3.2-7.2-4.8-11.2-4.8H96c-4,0-8,1.6-11.2,4.8l-6.4,6.4c-12.8,3.2-16.8,4.8-20.8,4.8h-3.2
	c-4,0-8-1.6-11.2-4.8l-6.4-6.4c-3.2-3.2-7.2-4.8-11.2-4.8h-3.2c-4,0-8,1.6-11.2,4.8L0,407.457z"/>
<path style="fill:#345C6B;" d="M453.6,430.657l-6.4,6.4c-1.6,1.6-3.2,2.4-5.6,2.4h-2.4c-2.4,0-4-0.8-5.6-2.4l-6.4-6.4
	c-5.6-4.8-11.2-7.2-17.6-7.2h-2.4c-6.4,0-12.8,2.4-16.8,7.2l-6.4,6.4c-1.6,1.6-3.2,2.4-5.6,2.4H376c-2.4,0-4-0.8-5.6-2.4l-6.4-6.4
	c-6.4-4.8-12-7.2-18.4-7.2h-2.4c-6.4,0-12.8,2.4-16.8,7.2l-6.4,6.4c-1.6,1.6-3.2,2.4-5.6,2.4H312c-2.4,0-4-0.8-5.6-2.4l-6.4-6.4
	c-6.4-4.8-12-7.2-18.4-7.2h-2.4c-6.4,0-12.8,2.4-16.8,7.2l-6.4,6.4c-1.6,1.6-3.2,2.4-5.6,2.4H248c-2.4,0-4-0.8-5.6-2.4l-6.4-6.4
	c-6.4-4.8-12-7.2-18.4-7.2h-2.4c-6.4,0-12.8,2.4-16.8,7.2l-6.4,6.4c-1.6,1.6-3.2,2.4-5.6,2.4H184c-2.4,0-4-0.8-5.6-2.4l-6.4-6.4
	c-6.4-4.8-12-7.2-18.4-7.2h-2.4c-6.4,0-12.8,2.4-16.8,7.2l-6.4,6.4c-1.6,1.6-3.2,2.4-5.6,2.4H120c-2.4,0-4-0.8-5.6-2.4l-6.4-6.4
	c-6.4-4.8-12-7.2-18.4-7.2h-2.4c-6.4,0-12.8,2.4-16.8,7.2l-6.4,6.4c-2.4,1.6-4.8,2.4-6.4,2.4h-3.2c-2.4,0-4-0.8-5.6-2.4l-6.4-6.4
	c-4.8-4.8-10.4-7.2-16.8-7.2h-3.2c-6.4,0-12.8,2.4-16.8,7.2l-5.6,5.6v22.4l16.8-16.8c1.6-1.6,4-2.4,5.6-2.4h2.4c2.4,0,4,0.8,5.6,2.4
	l6.4,6.4c5.6,4.8,11.2,7.2,17.6,7.2h2.4c6.4,0,12.8-2.4,16.8-7.2l6.4-6.4c1.6-1.6,3.2-2.4,5.6-2.4H88c2.4,0,4,0.8,5.6,2.4l6.4,6.4
	c4.8,4.8,10.4,7.2,16.8,7.2h2.4c6.4,0,12.8-2.4,16.8-7.2l6.4-6.4c1.6-1.6,3.2-2.4,5.6-2.4h2.4c2.4,0,4,0.8,5.6,2.4l6.4,6.4
	c4.8,4.8,10.4,7.2,16.8,7.2h2.4c6.4,0,12.8-2.4,16.8-7.2l6.4-6.4c1.6-1.6,3.2-2.4,5.6-2.4h2.4c2.4,0,4,0.8,5.6,2.4l6.4,6.4
	c4.8,4.8,10.4,7.2,16.8,7.2h2.4c6.4,0,12.8-2.4,16.8-7.2l6.4-6.4c1.6-1.6,3.2-2.4,5.6-2.4h2.4c2.4,0,4,0.8,5.6,2.4l6.4,6.4
	c4.8,4.8,10.4,7.2,16.8,7.2h2.4c6.4,0,12.8-2.4,16.8-7.2l6.4-6.4c1.6-1.6,3.2-2.4,5.6-2.4h2.4c2.4,0,4,0.8,5.6,2.4l6.4,6.4
	c4.8,4.8,10.4,7.2,16.8,7.2h2.4c6.4,0,12.8-2.4,16.8-7.2l6.4-6.4c1.6-1.6,3.2-2.4,5.6-2.4h2.4c2.4,0,4,0.8,5.6,2.4l6.4,6.4
	c4.8,4.8,10.4,7.2,16.8,7.2h2.4c6.4,0,12.8-2.4,16.8-7.2l6.4-6.4c1.6-1.6,3.2-2.4,5.6-2.4h20v-16h-9.6
	C464,423.457,458.4,425.857,453.6,430.657z"/>
<g>
	<rect x="160" y="311.457" style="fill:#867668;" width="32" height="32"/>
	<rect x="32" y="271.457" style="fill:#867668;" width="192" height="16"/>
	<polygon style="fill:#867668;" points="0,247.457 128,159.457 256,247.457 	"/>
	<path style="fill:#867668;" d="M152,95.457c13.6,0,24-10.4,24-24s-10.4-24-24-24c-2.4,0-5.6,0.8-8,1.6c0-0.8,0-0.8,0-1.6
		c0-13.6-10.4-24-24-24c-6.4,0-12.8,2.4-16.8,7.2c-5.6-21.6-27.2-34.4-48.8-28.8c-20.8,4.8-33.6,24.8-29.6,45.6H24
		c-13.6,0-24,10.4-24,24s10.4,24,24,24H152z"/>
	<path style="fill:#867668;" d="M343.2,30.657c-5.6-21.6-27.2-34.4-48.8-28.8c-20,4.8-33.6,25.6-29.6,45.6H264
		c-13.6,0-24,10.4-24,24s10.4,24,24,24h64"/>
</g>
<path style="fill:#ADA08F;" d="M328,95.457c-13.6,0-24-10.4-24-24s10.4-24,24-24c2.4,0,5.6,0.8,8,1.6c0-0.8,0-0.8,0-1.6
	c0-13.6,10.4-24,24-24c6.4,0,12.8,2.4,16.8,7.2c5.6-21.6,27.2-34.4,48.8-28.8c20,4.8,33.6,25.6,29.6,45.6h0.8c13.6,0,24,10.4,24,24
	s-10.4,24-24,24H328z"/>
<polygon style="fill:#BF9106;" points="424,127.457 384,167.457 432,167.457 352,271.457 368,199.457 336,199.457 368,127.457 "/>
<g>
	<rect x="448" y="119.457" style="fill:#867668;" width="16" height="16"/>
	<rect x="464" y="151.457" style="fill:#867668;" width="16" height="16"/>
	<rect x="448" y="183.457" style="fill:#867668;" width="16" height="16"/>
	<rect x="432" y="215.457" style="fill:#867668;" width="16" height="16"/>
	<rect x="416" y="279.457" style="fill:#867668;" width="16" height="16"/>
	<rect x="448" y="247.457" style="fill:#867668;" width="16" height="16"/>
	<rect x="264" y="119.457" style="fill:#867668;" width="16" height="16"/>
	<rect x="312" y="119.457" style="fill:#867668;" width="16" height="16"/>
	<rect x="296" y="151.457" style="fill:#867668;" width="16" height="16"/>
	<rect x="232" y="151.457" style="fill:#867668;" width="16" height="16"/>
	<rect x="264" y="183.457" style="fill:#867668;" width="16" height="16"/>
	<rect x="296" y="215.457" style="fill:#867668;" width="16" height="16"/>
	<rect x="312" y="247.457" style="fill:#867668;" width="16" height="16"/>
	<rect x="400" y="247.457" style="fill:#867668;" width="16" height="16"/>
	<rect x="448" y="295.457" style="fill:#867668;" width="16" height="16"/>
	<rect x="344" y="295.457" style="fill:#867668;" width="16" height="16"/>
	<rect x="296" y="295.457" style="fill:#867668;" width="16" height="16"/>
	<rect x="8" y="119.457" style="fill:#867668;" width="16" height="16"/>
	<rect x="56" y="119.457" style="fill:#867668;" width="16" height="16"/>
	<rect x="104" y="119.457" style="fill:#867668;" width="16" height="16"/>
	<rect x="24" y="151.457" style="fill:#867668;" width="16" height="16"/>
	<rect x="72" y="151.457" style="fill:#867668;" width="16" height="16"/>
	<rect x="8" y="183.457" style="fill:#867668;" width="16" height="16"/>
	<rect x="152" y="135.457" style="fill:#867668;" width="16" height="16"/>
</g>
<g>
</g>
<g>
</g>
<g>
</g>
<g>
</g>
<g>
</g>
<g>
</g>
<g>
</g>
<g>
</g>
<g>
</g>
<g>
</g>
<g>
</g>
<g>
</g>
<g>
</g>
<g>
</g>
<g>
</g>
</svg>
