<svg xmlns="http://www.w3.org/2000/svg" viewBox="13211.44 7939 163.595 86.539">
  <defs>
    <style>
      .cls-1 {
        fill: #0e0b14;
      }

      .cls-2 {
        fill: #f1ebc4;
      }

      .cls-3 {
        fill: #99999a;
      }

      .cls-4 {
        fill: #b7b7b7;
      }

      .cls-5 {
        opacity: 0.47;
      }

      .cls-6 {
        fill: #ec5b4c;
      }

      .cls-7 {
        fill: #d62727;
      }

      .cls-8 {
        fill: #fff;
      }

      .cls-9 {
        fill: #7fc8e9;
      }

      .cls-10 {
        fill: #9f2c22;
      }

      .cls-11 {
        fill: #e33f25;
      }
    </style>
  </defs>
  <g id="Group_3518" data-name="Group 3518" transform="translate(13211.44 7939)">
    <g id="Group_3456" data-name="Group 3456">
      <g id="Group_3448" data-name="Group 3448" transform="translate(128.188 67.414)">
        <circle id="Ellipse_1572" data-name="Ellipse 1572" class="cls-1" cx="9.563" cy="9.563" r="9.563"/>
      </g>
      <g id="Group_3449" data-name="Group 3449" transform="translate(42.045 67.414)">
        <circle id="Ellipse_1573" data-name="Ellipse 1573" class="cls-1" cx="9.563" cy="9.563" r="9.563"/>
      </g>
      <rect id="Rectangle_710" data-name="Rectangle 710" class="cls-2" width="104.479" height="61.644"/>
      <rect id="Rectangle_711" data-name="Rectangle 711" class="cls-3" width="15.174" height="12.803" transform="translate(74.052 64.094)"/>
      <rect id="Rectangle_712" data-name="Rectangle 712" class="cls-4" width="30.427" height="61.644" transform="translate(74.052)"/>
      <path id="Path_7097" data-name="Path 7097" class="cls-4" d="M74.052,81.1V93.9H0V81.1Z" transform="translate(0 -17.006)"/>
      <g id="Group_3450" data-name="Group 3450" class="cls-5" transform="translate(4.663)">
        <rect id="Rectangle_713" data-name="Rectangle 713" class="cls-4" width="2.529" height="61.644" transform="translate(59.589)"/>
        <rect id="Rectangle_714" data-name="Rectangle 714" class="cls-4" width="2.529" height="61.644" transform="translate(49.632)"/>
        <rect id="Rectangle_715" data-name="Rectangle 715" class="cls-4" width="2.529" height="61.644" transform="translate(39.674)"/>
        <rect id="Rectangle_716" data-name="Rectangle 716" class="cls-4" width="2.529" height="61.644" transform="translate(29.795)"/>
        <rect id="Rectangle_717" data-name="Rectangle 717" class="cls-4" width="2.529" height="61.644" transform="translate(19.837)"/>
        <rect id="Rectangle_718" data-name="Rectangle 718" class="cls-4" width="2.529" height="61.644" transform="translate(9.958)"/>
        <rect id="Rectangle_719" data-name="Rectangle 719" class="cls-4" width="2.529" height="61.644"/>
      </g>
      <path id="Path_7098" data-name="Path 7098" class="cls-6" d="M117.3,9h23.472c6.006,0,10.906,4.347,10.906,9.642V25.2H128.206v-6.56C128.206,13.347,123.306,9,117.3,9Z" transform="translate(-24.597 -1.887)"/>
      <path id="Path_7099" data-name="Path 7099" class="cls-7" d="M113.966,9c6.006,0,10.906,4.347,10.906,9.642v8.931H101.4V9Z" transform="translate(-21.262 -1.887)"/>
      <path id="Path_7100" data-name="Path 7100" class="cls-7" d="M101.5,29.5h46.786v.079h10.59c3,0,5.453,2.213,5.453,4.821V49.574l11.38,5.532c3.556,1.9,6.56,3.161,6.56,5.769V77h2.608v6.085h-47.34v.079H108.218v-.079H101.5Z" transform="translate(-21.283 -6.186)"/>
      <path id="Path_7101" data-name="Path 7101" class="cls-6" d="M152.913,87.442H186.9a2.209,2.209,0,0,0,2.213-2.213V70.213A2.209,2.209,0,0,0,186.9,68H152.913a2.209,2.209,0,0,0-2.213,2.213V85.229A2.261,2.261,0,0,0,152.913,87.442Z" transform="translate(-31.6 -14.259)"/>
      <g id="Group_3453" data-name="Group 3453" transform="translate(122.656 56.947)">
        <g id="Group_3451" data-name="Group 3451" transform="translate(9.957 0)">
          <rect id="Rectangle_720" data-name="Rectangle 720" class="cls-7" width="1.185" height="11.934" transform="translate(12.957 11.934) rotate(180)"/>
          <rect id="Rectangle_721" data-name="Rectangle 721" class="cls-7" width="1.185" height="11.934" transform="translate(9.994 11.934) rotate(180)"/>
          <rect id="Rectangle_722" data-name="Rectangle 722" class="cls-7" width="1.185" height="11.934" transform="translate(7.032 11.934) rotate(180)"/>
          <rect id="Rectangle_723" data-name="Rectangle 723" class="cls-7" width="1.185" height="11.934" transform="translate(4.069 11.934) rotate(180)"/>
          <rect id="Rectangle_724" data-name="Rectangle 724" class="cls-7" width="1.185" height="11.934" transform="translate(1.185 11.934) rotate(180)"/>
        </g>
        <g id="Group_3452" data-name="Group 3452" transform="translate(0 7.385)">
          <ellipse id="Ellipse_1574" data-name="Ellipse 1574" class="cls-8" cx="2.608" cy="2.292" rx="2.608" ry="2.292" transform="translate(27.582)"/>
          <ellipse id="Ellipse_1575" data-name="Ellipse 1575" class="cls-8" cx="2.608" cy="2.292" rx="2.608" ry="2.292"/>
        </g>
      </g>
      <rect id="Rectangle_725" data-name="Rectangle 725" class="cls-6" width="7.745" height="2.608" transform="translate(96.598 53.834) rotate(180)"/>
      <path id="Path_7102" data-name="Path 7102" class="cls-9" d="M114.413,52.651h10.511a2.209,2.209,0,0,0,2.213-2.213V36.213A2.209,2.209,0,0,0,124.924,34H114.413a2.209,2.209,0,0,0-2.213,2.213V50.438A2.209,2.209,0,0,0,114.413,52.651Z" transform="translate(-23.527 -7.129)"/>
      <path id="Path_7103" data-name="Path 7103" class="cls-9" d="M164.3,34.1H140.277a3.508,3.508,0,0,0-3.477,3.477v11.7a3.508,3.508,0,0,0,3.477,3.477H164.3a3.508,3.508,0,0,0,3.477-3.477v-11.7A3.508,3.508,0,0,0,164.3,34.1Z" transform="translate(-28.685 -7.15)"/>
      <rect id="Rectangle_726" data-name="Rectangle 726" class="cls-10" width="6.164" height="2.45" transform="translate(74.052 61.644)"/>
      <rect id="Rectangle_727" data-name="Rectangle 727" class="cls-11" width="74.052" height="2.45" transform="translate(0 61.644)"/>
      <g id="Group_3454" data-name="Group 3454" transform="translate(96.418 67.414)">
        <circle id="Ellipse_1576" data-name="Ellipse 1576" class="cls-1" cx="9.563" cy="9.563" r="9.563"/>
        <circle id="Ellipse_1577" data-name="Ellipse 1577" class="cls-8" cx="3.556" cy="3.556" r="3.556" transform="translate(6.006 6.006)"/>
      </g>
      <g id="Group_3455" data-name="Group 3455" transform="translate(10.274 67.414)">
        <circle id="Ellipse_1578" data-name="Ellipse 1578" class="cls-1" cx="9.563" cy="9.563" r="9.563"/>
        <circle id="Ellipse_1579" data-name="Ellipse 1579" class="cls-8" cx="3.556" cy="3.556" r="3.556" transform="translate(6.006 6.006)"/>
      </g>
    </g>
  </g>
</svg>
