<svg xmlns="http://www.w3.org/2000/svg" viewBox="0 0 50 50"><style>.st0{fill:#f5eee4}.st1{fill:#bee6ee}.st2{fill:none;stroke:#e7f7f5;stroke-width:1.25;stroke-linecap:round;stroke-linejoin:round;stroke-miterlimit:10}.st3{opacity:.15}.st4{fill:#feeadd}.st5{fill:#e2cbaf}.st6{fill:#cea97a;stroke:#6e6e67;stroke-width:1.25;stroke-linecap:round;stroke-linejoin:round;stroke-miterlimit:10}.st7{fill:#f8d272}.st8{fill:#f6c343}.st9{fill:#e2cfde}.st9,.st10{fill-rule:evenodd;clip-rule:evenodd}.st10{fill:#f4edf2}.st11{fill:#ff927d}.st12{fill:#cbc1b9}.st13{fill:#a79f99}.st14{fill:#d6c7b5}.st15{fill:#907656}.st16{fill:none;stroke:#6e6e67;stroke-width:1.25;stroke-linecap:round;stroke-linejoin:round;stroke-miterlimit:10}.st17{fill:#eaeaea}.st17,.st18{fill-rule:evenodd;clip-rule:evenodd}.st18{fill:#afafaf}.st19{fill:none;stroke:#6e6e67;stroke-width:1.25;stroke-linecap:round;stroke-linejoin:round;stroke-miterlimit:10}.st19,.st20{fill-rule:evenodd;clip-rule:evenodd}.st21{fill:#f4f4f4}.st22{fill:#d6b6cf}.st23{fill:#ba87a7}.st24{fill:none;stroke:#6e6e67;stroke-width:1.25;stroke-miterlimit:10}.st25{fill:#70b8c8}.st26{opacity:.2;fill:#6e6e67}.st27{opacity:.2;fill:#fff}.st28{fill:none;stroke:#6e6e67;stroke-width:1.25;stroke-linecap:round;stroke-linejoin:round}.st29{stroke-dasharray:1.0206,2.0413}.st29,.st30{fill:none;stroke:#6e6e67;stroke-width:1.25;stroke-linecap:round;stroke-linejoin:round}.st30{stroke-dasharray:1.0676,2.1351}.st31{fill:#abd6f4}.st32{opacity:.75;fill:#6daadd}.st33{fill:#d8ba95;stroke:#6e6e67;stroke-width:1.25;stroke-linecap:round;stroke-linejoin:round;stroke-miterlimit:10}.st33,.st34{fill-rule:evenodd;clip-rule:evenodd}.st34{fill:#f4f4f4}.st35{opacity:.15}.st35,.st36{fill-rule:evenodd;clip-rule:evenodd}.st36{fill:#cecece}.st37{fill:#d8ba95;stroke:#6e6e67;stroke-width:1.25;stroke-linecap:round;stroke-linejoin:round;stroke-miterlimit:10}.st38{fill:#e2e2e2}.st39{fill-rule:evenodd;clip-rule:evenodd}.st39,.st40{fill:#fbe1a1}.st41{fill:#fccdd9}.st42{stroke:#ed9f9d;stroke-width:1.25;stroke-linecap:round;stroke-linejoin:round;stroke-miterlimit:10}.st42,.st43{opacity:.15;fill:#491f2b}.st44{fill:#f8d272;stroke:#6e6e67}.st44,.st45{stroke-width:1.25;stroke-linecap:round;stroke-linejoin:round;stroke-miterlimit:10}.st45{fill:#fccdd9;stroke:#756b6e}.st46{fill:#f8f8f8}.st47{opacity:.15;fill:#6e6e67}.st48{fill:#a6d7a1;stroke:#6e6e67}.st48,.st49{stroke-width:1.25;stroke-linecap:round;stroke-linejoin:round;stroke-miterlimit:10}.st49{fill:none;stroke:#756b6e}.st50{fill:#f9f9f9}.st51{fill:#efefef}.st52{fill:#fff}.st53{fill:#e3e3e1}.st54{fill:#fdbb90}.st54,.st55{stroke:#6e6e67;stroke-width:1.25;stroke-linecap:round;stroke-linejoin:round;stroke-miterlimit:10}.st55{fill:#fff}.st56{fill:#a5a5a0}.st57{fill:#f0f0ee;stroke-width:1.25}.st57,.st58{stroke:#c5c5c2;stroke-linecap:round;stroke-linejoin:round;stroke-miterlimit:10}.st58{fill:none}.st59{fill:#eedf6e}.st59,.st60{stroke:#6e6e67;stroke-width:1.25;stroke-linecap:round;stroke-linejoin:round;stroke-miterlimit:10}.st60{fill:#e6e1bf}.st60,.st61{fill-rule:evenodd;clip-rule:evenodd}.st61{opacity:.2;fill:#6e6e67}.st62{fill:#cecece}.st63{fill:#aaa}.st64{fill:none;stroke:#6e6e67;stroke-width:1.25;stroke-linecap:round;stroke-linejoin:round;stroke-miterlimit:10;stroke-dasharray:5.4128,5.4128}.st65{fill:#f4f4f4}.st65,.st66{stroke:#6e6e67;stroke-width:1.25;stroke-linecap:round;stroke-linejoin:round;stroke-miterlimit:10}.st66{fill:#afafaf}.st67{opacity:.23}.st68{fill:#6e6e67;stroke:#6e6e67;stroke-width:1.25;stroke-linecap:round;stroke-linejoin:round;stroke-miterlimit:10}.st69{fill:#cecece}.st69,.st70{stroke:#6e6e67;stroke-width:1.25;stroke-linecap:round;stroke-linejoin:round;stroke-miterlimit:10}.st70{fill:#ddd}.st71{opacity:.11}.st72{fill:#e6e1bf}.st73{fill:#d6cea2}.st74{fill:none;stroke:#fff}.st74,.st75{stroke-width:1.25;stroke-linecap:round;stroke-linejoin:round;stroke-miterlimit:10}.st75{fill:#f8c4c1;stroke:#6e6e67}.st76{fill:#e6e1bf}.st76,.st77{stroke:#6e6e67;stroke-width:1.25;stroke-linecap:round;stroke-linejoin:round;stroke-miterlimit:10}.st77{fill:#d1d1cd}.st78{clip-path:url(#SVGID_2_)}.st78,.st79{opacity:.22;fill:#6e6e67}.st80{opacity:.64;fill:#f8c4c1;stroke:#f9ecea;stroke-width:1.25;stroke-linecap:round;stroke-linejoin:round;stroke-miterlimit:10}.st81{opacity:.4}.st82{fill:#e2e2e2;stroke:#6e6e67;stroke-width:1.25;stroke-linecap:round;stroke-linejoin:round;stroke-miterlimit:10}.st83{opacity:.41;fill:#6e6e67}.st84{fill:#fff}.st84,.st85{fill-rule:evenodd;clip-rule:evenodd}.st85{fill:#70b8c8}.st86{fill:#ebddca}.st86,.st87{fill-rule:evenodd;clip-rule:evenodd}.st87{fill:#898989;stroke:#6e6e67;stroke-width:1.25;stroke-linecap:round;stroke-linejoin:round;stroke-miterlimit:10}.st88{fill:#ebddca}.st89{opacity:.5;fill:#cde6f8}.st90{fill:#6daadd}.st91{opacity:.3;fill:#a5a5a0}.st92{fill:#898989}.st93{fill:#c4c4c4;stroke:#6e6e67;stroke-width:1.25;stroke-linecap:round;stroke-miterlimit:10}.st93,.st94{stroke-linejoin:round}.st94{fill:none}.st94,.st95{stroke:#6e6e67;stroke-width:1.25;stroke-miterlimit:10}.st95{fill:#eb7e75}.st96{fill:#f0f0ee}.st97{fill:#c5c5c2}.st98{fill:#bee6ee;stroke:#6e6e67;stroke-width:1.25;stroke-linecap:round;stroke-linejoin:round;stroke-miterlimit:10}.st99{fill-rule:evenodd;clip-rule:evenodd;fill:#f8c4c1}.st100{fill:#ed9f9d}.st101{fill:#aad5a7}.st102{fill:#7ebb7a}.st103{fill-rule:evenodd;clip-rule:evenodd;fill:#807d6b;stroke:#6e6e67;stroke-width:1.25;stroke-linecap:round;stroke-linejoin:round;stroke-miterlimit:10}.st104{fill:#d8edd7}.st105{fill:none;stroke:#f9ecea;stroke-width:1.25;stroke-linecap:round;stroke-linejoin:round;stroke-miterlimit:10}.st106{fill-rule:evenodd;clip-rule:evenodd;fill:#fed0b2}.st107{fill:#fdbb90}.st107,.st108{fill-rule:evenodd;clip-rule:evenodd}.st108{fill:#feeadd}.st109{fill:#a6d7a1}.st110{fill:#e3f4e1}.st111{fill:#5a9da8}.st112{fill:none;stroke:#6e6e67;stroke-linecap:round;stroke-linejoin:round;stroke-miterlimit:10}.st113{fill:#6e6e67}.st114{fill:#a9e8e4;stroke-linecap:round;stroke-linejoin:round}.st114,.st115{stroke:#6e6e67;stroke-width:1.25;stroke-miterlimit:10}.st115{fill:#ffad9d}.st116{fill:#fdbb90}.st117{fill:#f2f2f2;stroke:#bcbcbc;stroke-width:1.25;stroke-miterlimit:10}.st118{fill:none;stroke:#bcbcbc}.st118,.st119{stroke-miterlimit:10}.st119{fill:#cea97a;stroke:#756b6e;stroke-width:1.25;stroke-linecap:round;stroke-linejoin:round}.st120{fill:none}.st120,.st121{stroke:#6e6e67;stroke-width:1.25;stroke-linecap:round;stroke-miterlimit:10}.st121{fill:#ededed;stroke-linejoin:round}.st122{fill:#a8865d}.st123{fill:#cea97a}.st124{fill:#eb7e75}.st125{fill:#d4d2d1}.st126{fill:#fccdd9;stroke:#6e6e67;stroke-width:1.25;stroke-linecap:round;stroke-linejoin:round;stroke-miterlimit:10}.st127{fill:#b9af73;stroke:#6e6e67}.st127,.st128{stroke-width:1.25;stroke-linecap:round;stroke-linejoin:round;stroke-miterlimit:10}.st128{fill:none;stroke:#3f3f39}.st129{fill:#e4f3f4}.st130{fill:#e8e8e8}.st131{fill:#d4d2d1;stroke:#6e6e67;stroke-width:1.25;stroke-linecap:round;stroke-linejoin:round;stroke-miterlimit:10}.st132{fill:#f8c4c1}.st133{opacity:.1;fill:#600319}.st134{fill:#faf5cd}.st135{fill:#eb7e75}.st135,.st136{stroke:#6e6e67;stroke-width:1.25;stroke-linecap:round;stroke-linejoin:round;stroke-miterlimit:10}.st136,.st137{fill:#8f8f88}.st138{fill:#ca4a39}.st139{fill:none;stroke:#fcf9df;stroke-width:1.25;stroke-linecap:round;stroke-linejoin:round;stroke-miterlimit:10}.st140{fill:#d6d5cc}.st141{fill:#a8a594}.st142{fill:#edece8}.st143{fill:#fcf9df;stroke:#6e6e67;stroke-width:1.25;stroke-linecap:round;stroke-linejoin:round;stroke-miterlimit:10}.st144{fill:#807d6b}.st145{fill:none;stroke:#fff;stroke-width:1.25;stroke-linecap:round;stroke-miterlimit:10}.st146{fill:#eee7df}.st147{fill:#a9e8e4}.st148{fill:#4aafa9}.st149{fill:#a8a594;stroke:#6e6e67;stroke-width:1.25;stroke-linecap:round;stroke-linejoin:round;stroke-miterlimit:10}.st150{fill:#f6eda8}.st151{fill:#fed0b2}.st152{fill:#f09860}.st153{opacity:.25;clip-path:url(#SVGID_4_)}.st154{fill:#23231e}.st155{fill:#e8e8e8;stroke:#6e6e67;stroke-width:1.25;stroke-linecap:round;stroke-linejoin:round;stroke-miterlimit:10}.st156{fill:#fce6b6}.st157{fill:#b5e5e8;stroke-width:1.25}.st157,.st158{stroke:#6e6e67;stroke-linecap:round;stroke-linejoin:round;stroke-miterlimit:10}.st158{fill:#7a7a7a}.st158,.st159{stroke-width:1.25}.st159{fill-rule:evenodd;clip-rule:evenodd;fill:#eb7e75}.st159,.st160{stroke:#6e6e67;stroke-linecap:round;stroke-linejoin:round;stroke-miterlimit:10}.st160{fill:#c4c4c4}.st161{fill:#ceb69b}.st162{fill:#ff775c}.st162,.st163{stroke:#6e6e67;stroke-width:1.25;stroke-linecap:round;stroke-linejoin:round;stroke-miterlimit:10}.st163{fill:#d9654e}.st164{fill:#eedf6e}.st165{fill:#d6d6d6;stroke:#6e6e67;stroke-width:1.25;stroke-linecap:round;stroke-linejoin:round;stroke-miterlimit:10}.st166{fill-rule:evenodd;clip-rule:evenodd;fill:#fff;stroke:#6e6e67}.st166,.st167{stroke-width:1.25;stroke-linecap:round;stroke-linejoin:round;stroke-miterlimit:10}.st167{fill:none;stroke:#7ebb7a}.st168{fill:#c4c4c4}.st168,.st169{fill-rule:evenodd;clip-rule:evenodd}.st169{fill:#c3d7d8;stroke:#6e6e67;stroke-width:1.25;stroke-linecap:round;stroke-linejoin:round;stroke-miterlimit:10}.st170{opacity:.3;fill:#6e6e67}.st171{fill-rule:evenodd;clip-rule:evenodd;fill:#ddd;stroke-linecap:round;stroke-linejoin:round;stroke-miterlimit:10}.st171,.st172{stroke:#6e6e67;stroke-width:1.25}.st172{fill:#bee6ee}.st172,.st173{stroke-miterlimit:10}.st173{fill:#f8d272}.st173,.st174{fill-rule:evenodd;clip-rule:evenodd;stroke:#6e6e67}.st174{stroke-linecap:round;stroke-linejoin:round}.st174,.st175{fill:none;stroke-miterlimit:10}.st175{stroke:#fff}.st176{fill:#d6b6cf}.st176,.st177{stroke:#6e6e67;stroke-width:1.25;stroke-linecap:round;stroke-linejoin:round;stroke-miterlimit:10}.st177,.st178{fill:#70b8c8}.st178,.st179,.st180{stroke:#6e6e67;stroke-miterlimit:10}.st179,.st180{fill:#f6c343}.st180{stroke-linecap:round;stroke-linejoin:round}</style><g id="Icons"><path class="st0" d="M41.3 22.1c-.9-.3-1.7-1-2.2-1.8v12H10.9v-12c-.5.8-1.2 1.5-2.2 1.8v19h32.6v-19"/><path class="st1" d="M39.1 32.2H10.9v-12c.7 1.2 2 2.1 3.5 2.1s2.9-.8 3.5-2.1c.7 1.2 2 2.1 3.5 2.1s2.9-.8 3.5-2.1c.7 1.2 2 2.1 3.5 2.1s2.9-.8 3.5-2.1c.7 1.2 2 2.1 3.5 2.1s2.9-.8 3.5-2.1l.2 12z"/><path class="st2" d="M13 25.4v3.1c0 .9.8 1.6 1.7 1.6h1.9"/><path class="st3" d="M41.3 24c-.9-.3-1.7-1-2.2-1.8-.7 1.2-2 2.1-3.5 2.1s-2.9-.8-3.5-2.1c-.7 1.2-2 2.1-3.5 2.1s-2.9-.8-3.5-2.1c-.7 1.2-2 2.1-3.5 2.1s-2.9-.8-3.5-2.1c-.7 1.2-2 2.1-3.5 2.1s-2.9-.8-3.5-2.1c-.5.8-1.2 1.5-2.2 1.8v-1.8c.9-.3 1.7-1 2.2-1.8.7 1.2 2 2.1 3.5 2.1s2.9-.8 3.5-2.1c.7 1.2 2 2.1 3.5 2.1s2.9-.8 3.5-2.1c.7 1.2 2 2.1 3.5 2.1s2.9-.8 3.5-2.1c.7 1.2 2 2.1 3.5 2.1s2.9-.8 3.5-2.1c.5.8 1.2 1.5 2.2 1.8V24z"/><path class="st6" d="M3.4 41.2h43.3v2.5H3.4z"/><path class="st11" d="M46.6 18.6c0 2.1-1.8 3.8-4 3.8-1.5 0-2.9-.8-3.5-2.1-.7 1.2-2 2.1-3.5 2.1s-2.9-.8-3.5-2.1c-.7 1.2-2 2.1-3.5 2.1s-2.9-.8-3.5-2.1c-.7 1.2-2 2.1-3.5 2.1s-2.9-.8-3.5-2.1c-.7 1.2-2 2.1-3.5 2.1s-2.9-.8-3.5-2.1c-.7 1.2-2 2.1-3.5 2.1-2.2 0-4-1.7-4-3.8l7.1-10.2H10V5.8h30v2.5h-.4l7 10.3z"/><path class="st16" d="M46.6 18.6H3.4l7.1-10.2h29zM10 5.8h29.9v2.5H10zM3.4 18.6c0 2.1 1.8 3.8 4 3.8 1.5 0 2.9-.8 3.5-2.1.7 1.2 2 2.1 3.5 2.1s2.9-.8 3.5-2.1c.7 1.2 2 2.1 3.5 2.1s2.9-.8 3.5-2.1c.7 1.2 2 2.1 3.5 2.1s2.9-.8 3.5-2.1c.7 1.2 2 2.1 3.5 2.1s2.9-.8 3.5-2.1c.7 1.2 2 2.1 3.5 2.1 2.2 0 4-1.7 4-3.8m-35.5-2l3-6.4m4.2 6.4l.9-6.4m19.4 6.4l-3.1-6.4m-4.1 6.4l-.9-6.4m-5.7 6.4v-6.4"/><path class="st3" d="M36.4 41.2h.7l-.6-7.9h-7l-.6 7.9h.7l-.2 2.5h7.2z"/><path class="st90" d="M37.9 42.5h.7l-.6-8h-7l-.6 8h.7l-.2 2.5h7.2z"/><path class="st52" d="M36.8 40.5h-4.6l.3-4.4h3.9z"/><path class="st112" d="M36.8 40.5h-4.6l.3-4.4h3.9z"/><path class="st16" d="M37.9 42.5h.7l-.6-8h-7l-.6 8h.7l-.2 2.5h7.2zm-6.8 0h6.8m-27-22v11.8h28.2V20.5m2.2 20.7v-19m-32.6 0v19"/></g></svg>