<svg xmlns="http://www.w3.org/2000/svg" viewBox="0 0 50 50"><style>.st0{fill:#d9654e}.st1{fill:#f4f4f4}.st2{fill:#bee6ee}.st3{fill:none;stroke:#e7f7f5;stroke-width:1.25;stroke-linecap:round;stroke-linejoin:round;stroke-miterlimit:10}.st4{opacity:.15}.st5{fill:#feeadd}.st6{fill:#e2cbaf}.st7{fill:#c6c6c6;stroke:#6e6e67;stroke-width:1.25;stroke-linecap:round;stroke-linejoin:round;stroke-miterlimit:10}.st8{fill:#f8d272}.st9{fill:#f6c343}.st10{fill:#e2cfde}.st10,.st11{fill-rule:evenodd;clip-rule:evenodd}.st11{fill:#f4edf2}.st12{fill:#ff927d}.st13{fill:#cbc1b9}.st14{fill:#a79f99}.st15{fill:#d6c7b5}.st16{fill:#907656}.st17{fill:none;stroke:#6e6e67;stroke-width:1.25;stroke-linecap:round;stroke-linejoin:round;stroke-miterlimit:10}.st18{fill:#eaeaea}.st18,.st19{fill-rule:evenodd;clip-rule:evenodd}.st19{fill:#afafaf}.st20{fill:none;stroke:#6e6e67;stroke-width:1.25;stroke-linecap:round;stroke-linejoin:round;stroke-miterlimit:10}.st20,.st21{fill-rule:evenodd;clip-rule:evenodd}.st22{fill:#d6b6cf}.st23{fill:#ba87a7}.st24{fill:none;stroke:#6e6e67;stroke-width:1.25;stroke-miterlimit:10}.st25{fill:#70b8c8}.st26{opacity:.2;fill:#6e6e67}.st27{opacity:.2;fill:#fff}.st28{fill:none;stroke:#6e6e67;stroke-width:1.25;stroke-linecap:round;stroke-linejoin:round}.st29{stroke-dasharray:1.0206,2.0413}.st29,.st30{fill:none;stroke:#6e6e67;stroke-width:1.25;stroke-linecap:round;stroke-linejoin:round}.st30{stroke-dasharray:1.0676,2.1351}.st31{fill:#abd6f4}.st32{opacity:.75;fill:#6daadd}.st33{fill:#d8ba95;stroke:#6e6e67;stroke-width:1.25;stroke-linecap:round;stroke-linejoin:round;stroke-miterlimit:10}.st33,.st34{fill-rule:evenodd;clip-rule:evenodd}.st34{fill:#f4f4f4}.st35{opacity:.15}.st35,.st36{fill-rule:evenodd;clip-rule:evenodd}.st36{fill:#cecece}.st37{fill:#d8ba95}.st37,.st38{stroke:#6e6e67;stroke-width:1.25;stroke-linecap:round;stroke-linejoin:round;stroke-miterlimit:10}.st38{fill:#cea97a}.st39{fill:#e2e2e2}.st40{fill-rule:evenodd;clip-rule:evenodd}.st40,.st41{fill:#fbe1a1}.st42{fill:#fccdd9}.st43{stroke:#ed9f9d;stroke-width:1.25;stroke-linecap:round;stroke-linejoin:round;stroke-miterlimit:10}.st43,.st44{opacity:.15;fill:#491f2b}.st45{fill:#f8d272;stroke:#6e6e67}.st45,.st46{stroke-width:1.25;stroke-linecap:round;stroke-linejoin:round;stroke-miterlimit:10}.st46{fill:#fccdd9;stroke:#756b6e}.st47{fill:#f8f8f8}.st48{opacity:.15;fill:#6e6e67}.st49{fill:#a6d7a1;stroke:#6e6e67}.st49,.st50{stroke-width:1.25;stroke-linecap:round;stroke-linejoin:round;stroke-miterlimit:10}.st50{fill:none;stroke:#756b6e}.st51{fill:#f9f9f9}.st52{fill:#efefef}.st53{fill:#fff}.st54{fill:#e3e3e1}.st55{fill:#fdbb90}.st55,.st56{stroke:#6e6e67;stroke-width:1.25;stroke-linecap:round;stroke-linejoin:round;stroke-miterlimit:10}.st56{fill:#fff}.st57{fill:#a5a5a0}.st58{fill:#f0f0ee;stroke-width:1.25}.st58,.st59{stroke:#c5c5c2;stroke-linecap:round;stroke-linejoin:round;stroke-miterlimit:10}.st59{fill:none}.st60{fill:#eedf6e}.st60,.st61{stroke:#6e6e67;stroke-width:1.25;stroke-linecap:round;stroke-linejoin:round;stroke-miterlimit:10}.st61{fill:#e6e1bf}.st61,.st62{fill-rule:evenodd;clip-rule:evenodd}.st62{opacity:.2;fill:#6e6e67}.st63{fill:#cecece}.st64{fill:#aaa}.st65{fill:none;stroke:#6e6e67;stroke-width:1.25;stroke-linecap:round;stroke-linejoin:round;stroke-miterlimit:10;stroke-dasharray:5.4128,5.4128}.st66{fill:#f4f4f4}.st66,.st67{stroke:#6e6e67;stroke-width:1.25;stroke-linecap:round;stroke-linejoin:round;stroke-miterlimit:10}.st67{fill:#afafaf}.st68{opacity:.23}.st69{fill:#6e6e67;stroke:#6e6e67;stroke-width:1.25;stroke-linecap:round;stroke-linejoin:round;stroke-miterlimit:10}.st70{fill:#cecece}.st70,.st71{stroke:#6e6e67;stroke-width:1.25;stroke-linecap:round;stroke-linejoin:round;stroke-miterlimit:10}.st71{fill:#ddd}.st72{opacity:.11}.st73{fill:#e6e1bf}.st74{fill:#d6cea2}.st75{fill:none;stroke:#fff}.st75,.st76{stroke-width:1.25;stroke-linecap:round;stroke-linejoin:round;stroke-miterlimit:10}.st76{fill:#f8c4c1;stroke:#6e6e67}.st77{fill:#e6e1bf}.st77,.st78{stroke:#6e6e67;stroke-width:1.25;stroke-linecap:round;stroke-linejoin:round;stroke-miterlimit:10}.st78{fill:#d1d1cd}.st79{clip-path:url(#SVGID_2_)}.st79,.st80{opacity:.22;fill:#6e6e67}.st81{opacity:.64;fill:#f8c4c1;stroke:#f9ecea;stroke-width:1.25;stroke-linecap:round;stroke-linejoin:round;stroke-miterlimit:10}.st82{opacity:.4}.st83{fill:#e2e2e2;stroke:#6e6e67;stroke-width:1.25;stroke-linecap:round;stroke-linejoin:round;stroke-miterlimit:10}.st84{opacity:.41;fill:#6e6e67}.st85{fill:#fff}.st85,.st86{fill-rule:evenodd;clip-rule:evenodd}.st86{fill:#70b8c8}.st87{fill:#ebddca}.st87,.st88{fill-rule:evenodd;clip-rule:evenodd}.st88{fill:#898989;stroke:#6e6e67;stroke-width:1.25;stroke-linecap:round;stroke-linejoin:round;stroke-miterlimit:10}.st89{fill:#ebddca}.st90{opacity:.5;fill:#cde6f8}.st91{fill:#6daadd}.st92{opacity:.3;fill:#a5a5a0}.st93{fill:#898989}.st94{fill:#c4c4c4;stroke:#6e6e67;stroke-width:1.25;stroke-linecap:round;stroke-miterlimit:10}.st94,.st95{stroke-linejoin:round}.st95{fill:none}.st95,.st96{stroke:#6e6e67;stroke-width:1.25;stroke-miterlimit:10}.st96{fill:#eb7e75}.st97{fill:#f0f0ee}.st98{fill:#c5c5c2}.st99{fill:#bee6ee;stroke:#6e6e67;stroke-width:1.25;stroke-linecap:round;stroke-linejoin:round;stroke-miterlimit:10}.st100{fill-rule:evenodd;clip-rule:evenodd;fill:#f8c4c1}.st101{fill:#ed9f9d}.st102{fill:#aad5a7}.st103{fill:#7ebb7a}.st104{fill-rule:evenodd;clip-rule:evenodd;fill:#807d6b;stroke:#6e6e67;stroke-width:1.25;stroke-linecap:round;stroke-linejoin:round;stroke-miterlimit:10}.st105{fill:#d8edd7}.st106{fill:none;stroke:#f9ecea;stroke-width:1.25;stroke-linecap:round;stroke-linejoin:round;stroke-miterlimit:10}.st107{fill-rule:evenodd;clip-rule:evenodd;fill:#fed0b2}.st108{fill:#fdbb90}.st108,.st109{fill-rule:evenodd;clip-rule:evenodd}.st109{fill:#feeadd}.st110{fill:#a6d7a1}.st111{fill:#e3f4e1}.st112{fill:#5a9da8}.st113{fill:none;stroke:#6e6e67;stroke-linecap:round;stroke-linejoin:round;stroke-miterlimit:10}.st114{fill:#6e6e67}.st115{fill:#a9e8e4;stroke-linecap:round;stroke-linejoin:round}.st115,.st116{stroke:#6e6e67;stroke-width:1.25;stroke-miterlimit:10}.st116{fill:#ffad9d}.st117{fill:#fdbb90}.st118{fill:#f2f2f2;stroke:#bcbcbc;stroke-width:1.25;stroke-miterlimit:10}.st119{fill:none;stroke:#bcbcbc}.st119,.st120{stroke-miterlimit:10}.st120{fill:#cea97a;stroke:#756b6e;stroke-width:1.25;stroke-linecap:round;stroke-linejoin:round}.st121{fill:none}.st121,.st122{stroke:#6e6e67;stroke-width:1.25;stroke-linecap:round;stroke-miterlimit:10}.st122{fill:#ededed;stroke-linejoin:round}.st123{fill:#f5eee4}.st124{fill:#a8865d}.st125{fill:#cea97a}.st126{fill:#eb7e75}.st127{fill:#d4d2d1}.st128{fill:#fccdd9;stroke:#6e6e67;stroke-width:1.25;stroke-linecap:round;stroke-linejoin:round;stroke-miterlimit:10}.st129{fill:#b9af73;stroke:#6e6e67}.st129,.st130{stroke-width:1.25;stroke-linecap:round;stroke-linejoin:round;stroke-miterlimit:10}.st130{fill:none;stroke:#3f3f39}.st131{fill:#e4f3f4}.st132{fill:#e8e8e8}.st133{fill:#d4d2d1;stroke:#6e6e67;stroke-width:1.25;stroke-linecap:round;stroke-linejoin:round;stroke-miterlimit:10}.st134{fill:#f8c4c1}.st135{opacity:.1;fill:#600319}.st136{fill:#faf5cd}.st137{fill:#eb7e75}.st137,.st138{stroke:#6e6e67;stroke-width:1.25;stroke-linecap:round;stroke-linejoin:round;stroke-miterlimit:10}.st138,.st139{fill:#8f8f88}.st140{fill:#ca4a39}.st141{fill:none;stroke:#fcf9df;stroke-width:1.25;stroke-linecap:round;stroke-linejoin:round;stroke-miterlimit:10}.st142{fill:#d6d5cc}.st143{fill:#a8a594}.st144{fill:#edece8}.st145{fill:#fcf9df;stroke:#6e6e67;stroke-width:1.25;stroke-linecap:round;stroke-linejoin:round;stroke-miterlimit:10}.st146{fill:#807d6b}.st147{fill:none;stroke:#fff;stroke-width:1.25;stroke-linecap:round;stroke-miterlimit:10}.st148{fill:#eee7df}.st149{fill:#a9e8e4}.st150{fill:#4aafa9}.st151{fill:#a8a594;stroke:#6e6e67;stroke-width:1.25;stroke-linecap:round;stroke-linejoin:round;stroke-miterlimit:10}.st152{fill:#f6eda8}.st153{fill:#fed0b2}.st154{fill:#f09860}.st155{opacity:.25;clip-path:url(#SVGID_4_)}.st156{fill:#23231e}.st157{fill:#e8e8e8;stroke:#6e6e67;stroke-width:1.25;stroke-linecap:round;stroke-linejoin:round;stroke-miterlimit:10}.st158{fill:#fce6b6}.st159{fill:#b5e5e8;stroke-width:1.25}.st159,.st160{stroke:#6e6e67;stroke-linecap:round;stroke-linejoin:round;stroke-miterlimit:10}.st160{fill:#7a7a7a}.st160,.st161{stroke-width:1.25}.st161{fill-rule:evenodd;clip-rule:evenodd;fill:#eb7e75}.st161,.st162{stroke:#6e6e67;stroke-linecap:round;stroke-linejoin:round;stroke-miterlimit:10}.st162{fill:#c4c4c4}.st163{fill:#ceb69b}.st164{fill:#ff775c;stroke:#6e6e67;stroke-width:1.25;stroke-linecap:round;stroke-linejoin:round;stroke-miterlimit:10}.st165{fill:#eedf6e}.st166{fill:#d6d6d6;stroke:#6e6e67;stroke-width:1.25;stroke-linecap:round;stroke-linejoin:round;stroke-miterlimit:10}.st167{fill-rule:evenodd;clip-rule:evenodd;fill:#fff;stroke:#6e6e67}.st167,.st168{stroke-width:1.25;stroke-linecap:round;stroke-linejoin:round;stroke-miterlimit:10}.st168{fill:none;stroke:#7ebb7a}.st169{fill:#c4c4c4}.st169,.st170{fill-rule:evenodd;clip-rule:evenodd}.st170{fill:#c3d7d8;stroke:#6e6e67;stroke-width:1.25;stroke-linecap:round;stroke-linejoin:round;stroke-miterlimit:10}.st171{opacity:.3;fill:#6e6e67}.st172{fill-rule:evenodd;clip-rule:evenodd;fill:#ddd;stroke-linecap:round;stroke-linejoin:round;stroke-miterlimit:10}.st172,.st173{stroke:#6e6e67;stroke-width:1.25}.st173{fill:#bee6ee}.st173,.st174{stroke-miterlimit:10}.st174{fill:#f8d272}.st174,.st175{fill-rule:evenodd;clip-rule:evenodd;stroke:#6e6e67}.st175{stroke-linecap:round;stroke-linejoin:round}.st175,.st176{fill:none;stroke-miterlimit:10}.st176{stroke:#fff}.st177{fill:#d6b6cf}.st177,.st178{stroke:#6e6e67;stroke-width:1.25;stroke-linecap:round;stroke-linejoin:round;stroke-miterlimit:10}.st178,.st179{fill:#70b8c8}.st179,.st180,.st181{stroke:#6e6e67;stroke-miterlimit:10}.st180,.st181{fill:#f6c343}.st181{stroke-linecap:round;stroke-linejoin:round}</style><g id="Icons"><path class="st13" d="M30.6 32.5c-.3 1.5-2.5 2.5-5.3 2.5-2.7 0-5-1.1-5.3-2.5 0 0-10.2 3.8-11.6 4.1-3.1.7-4.8 1.7-4.8 10.5h43.2c0-8.8-1.7-9.8-4.8-10.5-1.2-.3-11.4-4.1-11.4-4.1"/><path class="st14" d="M30.6 32.5s1.5.6 3.4 1.3c0 0-1.6 4.6-8.7 4.5-7 0-8.7-4.5-8.7-4.5 1.9-.7 3.4-1.3 3.4-1.3.3 1.4 2.6 2.5 5.3 2.5 2.8 0 5-1 5.3-2.5z"/><path class="st5" d="M30.5 32.4v-2.8c2.7-2.4 4.7-6.4 5.3-11V15c-2.1-.8-5.2-4.4-5.2-4.4s-11.4 4.2-15.8 3c0 .3-.1 4.7 0 5 .7 4.5 2.6 8.6 5.3 11v2.8c.3 1.4 2.5 2.4 5.2 2.4 2.7.1 4.9-1 5.2-2.4"/><path class="st15" d="M35.8 15.1c-2.1-.8-5.2-4.4-5.2-4.4s-11.4 4.2-15.8 3c0 0 6.8 3.9 15.1-.7 0 0 2.8 2.3 5.9 2.1z"/><path class="st16" d="M36.5 15.5c-1.9-.2-5.9-4.8-5.9-4.8s-11.2 4.2-15.6 3c-4.4-1.2-2.5-7.3-2.5-7.3s2 1.1 2.5 1.3c0 0-1.5-2.5.7-4.6 0 0 .6 1.4 1.6 2.4 3-3 9-2.1 11.7-1.8 5.8.8 8.5 6 7.5 11.8z"/><path class="st17" d="M35.8 15.3v3.4c-1 7.3-5.3 13.2-10.5 13.2s-9.4-6.1-10.5-13.2v-5"/><path class="st17" d="M35.8 18c2.5-6.7-.2-13.4-6.8-14.3-2.6-.4-8-1.2-11.2 1.4"/><path class="st17" d="M20.1 6.5c-2.7.7-4.4-3.4-4.4-3.4-2.2 2-.7 4.6-.7 4.6-.5-.2-2.5-1.3-2.5-1.3s-1.9 6.2 2.5 7.3c4.4 1.2 15.6-3 15.6-3s3.1 3.6 5.2 4.6M13.6 13s-.1 1.9 1.2 4.6m15.7 12.1l.1 2.8s10.2 3.8 11.6 4.1c3.1.7 4.8 1.7 4.8 10.5H3.7c0-8.8 1.7-9.8 4.8-10.5 1.4-.3 11.6-4.1 11.6-4.1l.1-2.8"/><path class="st17" d="M30.6 32.5c-.3 1.4-2.6 2.5-5.3 2.5-2.7 0-5-1.1-5.3-2.5M37.8 47v-3.4h-6.4v3.3"/><path class="st179" d="M31.8 14.6c-3.1 0-4.6.5-4.6.5l-1.4 1.2h-1.5l-1.4-1.2s-1.4-.5-4.6-.5c-3.1 0-5.1.5-5.1.5l.5 2.2 1.3.4s.4 4.7 3.2 4.7h3.2c.9 0 2.5-.7 2.7-3.4h1.8c.2 2.7 1.8 3.4 2.7 3.4h3.2c2.9 0 3.2-4.7 3.2-4.7l1.3-.4.5-2.2c.1 0-1.9-.5-5-.5zm-11.1 6.3h-2.1c-2.1 0-2.2-4.3-2.2-4.3s1.2-.5 3.1-.5c1.8 0 2.5.5 2.9 1.1.4.6-.3 3.7-1.7 3.7zm10.7 0h-2.1c-1.4 0-2.2-3.1-1.8-3.7.4-.6 1.1-1.1 2.9-1.1 1.9 0 3.1.5 3.1.5s0 4.3-2.1 4.3z"/><path class="st113" d="M14.8 16.2h.5m19.9 0h-.5"/></g></svg>